# WaveFront *.obj file (generated by Autodesk ATF)

mtllib Bracket.mtl

g Body1

v 4.212000 -2.018100 0.000000
v 4.225630 -1.914572 0.000000
v 4.265590 -1.818100 0.000000
v 4.329157 -1.735257 0.000000
v 4.412000 -1.671690 0.000000
v 4.508472 -1.631730 0.000000
v 4.612000 -1.618100 0.000000
v 4.715528 -1.631730 0.000000
v 4.812000 -1.671690 0.000000
v 4.894843 -1.735257 0.000000
v 4.958410 -1.818100 0.000000
v 4.998370 -1.914572 0.000000
v 5.012000 -2.018100 0.000000
v 4.998370 -2.121628 0.000000
v 4.958410 -2.218100 0.000000
v 4.894843 -2.300943 0.000000
v 4.812000 -2.364510 0.000000
v 4.715528 -2.404470 0.000000
v 4.612000 -2.418100 0.000000
v 4.508472 -2.404470 0.000000
v 4.412000 -2.364510 0.000000
v 4.329157 -2.300943 0.000000
v 4.265590 -2.218100 0.000000
v 4.225630 -2.121628 0.000000
v 4.212000 -2.018100 4.800000
v 4.225630 -2.121628 4.800000
v 4.265590 -2.218100 4.800000
v 4.329157 -2.300943 4.800000
v 4.412000 -2.364510 4.800000
v 4.508472 -2.404470 4.800000
v 4.612000 -2.418100 4.800000
v 4.715528 -2.404470 4.800000
v 4.812000 -2.364510 4.800000
v 4.894843 -2.300943 4.800000
v 4.958410 -2.218100 4.800000
v 4.998370 -2.121628 4.800000
v 5.012000 -2.018100 4.800000
v 4.998370 -1.914572 4.800000
v 4.958410 -1.818100 4.800000
v 4.894843 -1.735257 4.800000
v 4.812000 -1.671690 4.800000
v 4.715528 -1.631730 4.800000
v 4.612000 -1.618100 4.800000
v 4.508472 -1.631730 4.800000
v 4.412000 -1.671690 4.800000
v 4.329157 -1.735257 4.800000
v 4.265590 -1.818100 4.800000
v 4.225630 -1.914572 4.800000
v 4.212000 -2.018100 1.600000
v 4.212000 -2.018100 3.200000
v 4.225630 -1.914572 1.600000
v 4.225630 -1.914572 3.200000
v 4.265590 -1.818100 1.600000
v 4.265590 -1.818100 3.200000
v 4.329157 -1.735257 1.600000
v 4.329157 -1.735257 3.200000
v 4.412000 -1.671690 1.600000
v 4.412000 -1.671690 3.200000
v 4.508472 -1.631730 1.600000
v 4.508472 -1.631730 3.200000
v 4.612000 -1.618100 1.600000
v 4.612000 -1.618100 3.200000
v 4.715528 -1.631730 1.600000
v 4.715528 -1.631730 3.200000
v 4.812000 -1.671690 1.600000
v 4.812000 -1.671690 3.200000
v 4.894843 -1.735257 1.600000
v 4.894843 -1.735257 3.200000
v 4.958410 -1.818100 1.600000
v 4.958410 -1.818100 3.200000
v 4.998370 -1.914572 1.600000
v 4.998370 -1.914572 3.200000
v 5.012000 -2.018100 1.600000
v 5.012000 -2.018100 3.200000
v 4.998370 -2.121628 1.600000
v 4.998370 -2.121628 3.200000
v 4.958410 -2.218100 1.600000
v 4.958410 -2.218100 3.200000
v 4.894843 -2.300943 1.600000
v 4.894843 -2.300943 3.200000
v 4.812000 -2.364510 1.600000
v 4.812000 -2.364510 3.200000
v 4.715528 -2.404470 1.600000
v 4.715528 -2.404470 3.200000
v 4.612000 -2.418100 1.600000
v 4.612000 -2.418100 3.200000
v 4.508472 -2.404470 1.600000
v 4.508472 -2.404470 3.200000
v 4.412000 -2.364510 1.600000
v 4.412000 -2.364510 3.200000
v 4.329157 -2.300943 1.600000
v 4.329157 -2.300943 3.200000
v 4.265590 -2.218100 1.600000
v 4.265590 -2.218100 3.200000
v 4.225630 -2.121628 1.600000
v 4.225630 -2.121628 3.200000
v 6.769900 0.362800 0.000000
v 6.783530 0.466328 0.000000
v 6.823490 0.562800 0.000000
v 6.887057 0.645643 0.000000
v 6.969900 0.709210 0.000000
v 7.066372 0.749170 0.000000
v 7.169900 0.762800 0.000000
v 7.273428 0.749170 0.000000
v 7.369900 0.709210 0.000000
v 7.452743 0.645643 0.000000
v 7.516310 0.562800 0.000000
v 7.556270 0.466328 0.000000
v 7.569900 0.362800 0.000000
v 7.556270 0.259272 0.000000
v 7.516310 0.162800 0.000000
v 7.452743 0.079957 0.000000
v 7.369900 0.016390 0.000000
v 7.273428 -0.023570 0.000000
v 7.169900 -0.037200 0.000000
v 7.066372 -0.023570 0.000000
v 6.969900 0.016390 0.000000
v 6.887057 0.079957 0.000000
v 6.823490 0.162800 0.000000
v 6.783530 0.259272 0.000000
v 6.769900 0.362800 4.800000
v 6.783530 0.259272 4.800000
v 6.823490 0.162800 4.800000
v 6.887057 0.079957 4.800000
v 6.969900 0.016390 4.800000
v 7.066372 -0.023570 4.800000
v 7.169900 -0.037200 4.800000
v 7.273428 -0.023570 4.800000
v 7.369900 0.016390 4.800000
v 7.452743 0.079957 4.800000
v 7.516310 0.162800 4.800000
v 7.556270 0.259272 4.800000
v 7.569900 0.362800 4.800000
v 7.556270 0.466328 4.800000
v 7.516310 0.562800 4.800000
v 7.452743 0.645643 4.800000
v 7.369900 0.709210 4.800000
v 7.273428 0.749170 4.800000
v 7.169900 0.762800 4.800000
v 7.066372 0.749170 4.800000
v 6.969900 0.709210 4.800000
v 6.887057 0.645643 4.800000
v 6.823490 0.562800 4.800000
v 6.783530 0.466328 4.800000
v 6.769900 0.362800 1.600000
v 6.769900 0.362800 3.200000
v 6.783530 0.466328 1.600000
v 6.783530 0.466328 3.200000
v 6.823490 0.562800 1.600000
v 6.823490 0.562800 3.200000
v 6.887057 0.645643 1.600000
v 6.887057 0.645643 3.200000
v 6.969900 0.709210 1.600000
v 6.969900 0.709210 3.200000
v 7.066372 0.749170 1.600000
v 7.066372 0.749170 3.200000
v 7.169900 0.762800 1.600000
v 7.169900 0.762800 3.200000
v 7.273428 0.749170 1.600000
v 7.273428 0.749170 3.200000
v 7.369900 0.709210 1.600000
v 7.369900 0.709210 3.200000
v 7.452743 0.645643 1.600000
v 7.452743 0.645643 3.200000
v 7.516310 0.562800 1.600000
v 7.516310 0.562800 3.200000
v 7.556270 0.466328 1.600000
v 7.556270 0.466328 3.200000
v 7.569900 0.362800 1.600000
v 7.569900 0.362800 3.200000
v 7.556270 0.259272 1.600000
v 7.556270 0.259272 3.200000
v 7.516310 0.162800 1.600000
v 7.516310 0.162800 3.200000
v 7.452743 0.079957 1.600000
v 7.452743 0.079957 3.200000
v 7.369900 0.016390 1.600000
v 7.369900 0.016390 3.200000
v 7.273428 -0.023570 1.600000
v 7.273428 -0.023570 3.200000
v 7.169900 -0.037200 1.600000
v 7.169900 -0.037200 3.200000
v 7.066372 -0.023570 1.600000
v 7.066372 -0.023570 3.200000
v 6.969900 0.016390 1.600000
v 6.969900 0.016390 3.200000
v 6.887057 0.079957 1.600000
v 6.887057 0.079957 3.200000
v 6.823490 0.162800 1.600000
v 6.823490 0.162800 3.200000
v 6.783530 0.259272 1.600000
v 6.783530 0.259272 3.200000
v -0.500000 -0.000000 0.000000
v -0.482963 0.129410 0.000000
v -0.433013 0.250000 0.000000
v -0.353553 0.353553 0.000000
v -0.250000 0.433013 0.000000
v -0.129410 0.482963 0.000000
v 0.000000 0.500000 0.000000
v 0.129410 0.482963 0.000000
v 0.250000 0.433013 0.000000
v 0.353553 0.353553 0.000000
v 0.433013 0.250000 0.000000
v 0.482963 0.129410 0.000000
v 0.500000 0.000000 0.000000
v 0.482963 -0.129410 0.000000
v 0.433013 -0.250000 0.000000
v 0.353553 -0.353553 0.000000
v 0.250000 -0.433013 0.000000
v 0.129410 -0.482963 0.000000
v 0.000000 -0.500000 0.000000
v -0.129410 -0.482963 0.000000
v -0.250000 -0.433013 0.000000
v -0.353553 -0.353553 0.000000
v -0.433013 -0.250000 0.000000
v -0.482963 -0.129410 0.000000
v -0.500000 -0.000000 4.800000
v -0.482963 -0.129410 4.800000
v -0.433013 -0.250000 4.800000
v -0.353553 -0.353553 4.800000
v -0.250000 -0.433013 4.800000
v -0.129410 -0.482963 4.800000
v 0.000000 -0.500000 4.800000
v 0.129410 -0.482963 4.800000
v 0.250000 -0.433013 4.800000
v 0.353553 -0.353553 4.800000
v 0.433013 -0.250000 4.800000
v 0.482963 -0.129410 4.800000
v 0.500000 0.000000 4.800000
v 0.482963 0.129410 4.800000
v 0.433013 0.250000 4.800000
v 0.353553 0.353553 4.800000
v 0.250000 0.433013 4.800000
v 0.129410 0.482963 4.800000
v 0.000000 0.500000 4.800000
v -0.129410 0.482963 4.800000
v -0.250000 0.433013 4.800000
v -0.353553 0.353553 4.800000
v -0.433013 0.250000 4.800000
v -0.482963 0.129410 4.800000
v -0.500000 -0.000000 2.400000
v -0.482963 0.129410 2.400000
v -0.433013 0.250000 2.400000
v -0.353553 0.353553 2.400000
v -0.250000 0.433013 2.400000
v -0.129410 0.482963 2.400000
v 0.000000 0.500000 2.400000
v 0.129410 0.482963 2.400000
v 0.250000 0.433013 2.400000
v 0.353553 0.353553 2.400000
v 0.433013 0.250000 2.400000
v 0.482963 0.129410 2.400000
v 0.500000 0.000000 2.400000
v 0.482963 -0.129410 2.400000
v 0.433013 -0.250000 2.400000
v 0.353553 -0.353553 2.400000
v 0.250000 -0.433013 2.400000
v 0.129410 -0.482963 2.400000
v 0.000000 -0.500000 2.400000
v -0.129410 -0.482963 2.400000
v -0.250000 -0.433013 2.400000
v -0.353553 -0.353553 2.400000
v -0.433013 -0.250000 2.400000
v -0.482963 -0.129410 2.400000
v 2.520433 0.320898 0.000000
v 0.782888 1.337754 0.000000
v 0.782888 1.337754 4.800000
v 2.520433 0.320898 4.800000
v 6.318363 0.963449 0.000000
v 5.946259 0.597144 0.000000
v 5.516277 0.300906 0.000000
v 5.041443 0.083710 0.000000
v 4.536142 -0.047865 0.000000
v 4.015681 -0.089833 0.000000
v 3.495826 -0.040923 0.000000
v 2.992325 0.097384 0.000000
v 2.992325 0.097384 4.800000
v 3.495826 -0.040923 4.800000
v 4.015681 -0.089833 4.800000
v 4.536142 -0.047865 4.800000
v 5.041443 0.083710 4.800000
v 5.516277 0.300906 4.800000
v 5.946259 0.597144 4.800000
v 6.318363 0.963449 4.800000
v 6.547832 1.145764 0.000000
v 6.547832 1.145764 4.800000
v 7.851228 -0.369179 0.000000
v 8.013986 -0.173408 0.000000
v 8.122034 0.057118 0.000000
v 8.168367 0.307456 0.000000
v 8.149984 0.561382 0.000000
v 8.068076 0.802437 0.000000
v 7.927950 1.014996 0.000000
v 7.738691 1.185282 0.000000
v 7.512565 1.302258 0.000000
v 7.264229 1.358341 0.000000
v 7.009778 1.349897 0.000000
v 6.765706 1.277473 0.000000
v 6.765706 1.277473 4.800000
v 7.009778 1.349897 4.800000
v 7.264229 1.358341 4.800000
v 7.512565 1.302258 4.800000
v 7.738691 1.185282 4.800000
v 7.927950 1.014996 4.800000
v 8.068076 0.802437 4.800000
v 8.149984 0.561382 4.800000
v 8.168367 0.307456 4.800000
v 8.122034 0.057118 4.800000
v 8.013986 -0.173408 4.800000
v 7.851228 -0.369179 4.800000
v 5.293328 -2.750079 0.000000
v 5.293328 -2.750079 4.800000
v 4.313612 -2.972545 0.000000
v 4.519644 -3.013826 0.000000
v 4.729754 -3.011143 0.000000
v 4.934665 -2.964613 0.000000
v 5.125329 -2.876292 0.000000
v 5.125329 -2.876292 4.800000
v 4.934665 -2.964613 4.800000
v 4.729754 -3.011143 4.800000
v 4.519644 -3.013826 4.800000
v 4.313612 -2.972545 4.800000
v -0.462501 -1.479389 0.000000
v -0.462501 -1.479389 4.800000
v 0.441604 1.485761 0.000000
v 0.074885 1.548190 0.000000
v -0.296148 1.521446 0.000000
v -0.650123 1.407068 0.000000
v -0.966652 1.211645 0.000000
v -1.227503 0.946434 0.000000
v -1.417652 0.626709 0.000000
v -1.526146 0.270886 0.000000
v -1.546736 -0.100539 0.000000
v -1.478236 -0.466173 0.000000
v -1.324592 -0.804956 0.000000
v -1.094654 -1.097375 0.000000
v -0.801665 -1.326587 0.000000
v -0.801665 -1.326587 4.800000
v -1.094654 -1.097375 4.800000
v -1.324592 -0.804956 4.800000
v -1.478236 -0.466173 4.800000
v -1.546736 -0.100539 4.800000
v -1.526146 0.270886 4.800000
v -1.417652 0.626709 4.800000
v -1.227503 0.946434 4.800000
v -0.966652 1.211645 4.800000
v -0.650123 1.407068 4.800000
v -0.296148 1.521446 4.800000
v 0.074885 1.548190 4.800000
v 0.441604 1.485761 4.800000
vt 4.800000 -1.151917 0.000000
vt 3.200000 -1.151917 0.000000
vt 4.800000 -1.256637 0.000000
vt 3.200000 -1.256637 0.000000
vt 4.800000 1.256637 0.000000
vt 3.200000 1.256637 0.000000
vt 4.800000 1.151917 0.000000
vt 3.200000 1.151917 0.000000
vt 4.800000 1.047198 0.000000
vt 3.200000 1.047198 0.000000
vt 4.800000 0.942478 0.000000
vt 3.200000 0.942478 0.000000
vt 4.800000 0.837758 0.000000
vt 3.200000 0.837758 0.000000
vt 4.800000 0.733038 0.000000
vt 3.200000 0.733038 0.000000
vt 4.800000 0.628319 0.000000
vt 3.200000 0.628319 0.000000
vt 4.800000 0.523599 0.000000
vt 3.200000 0.523599 0.000000
vt 4.800000 0.418879 0.000000
vt 3.200000 0.418879 0.000000
vt 4.800000 0.314159 0.000000
vt 3.200000 0.314159 0.000000
vt 4.800000 0.209440 0.000000
vt 3.200000 0.209440 0.000000
vt 4.800000 0.104720 0.000000
vt 3.200000 0.104720 0.000000
vt 4.800000 0.000000 0.000000
vt 3.200000 0.000000 0.000000
vt 4.800000 -0.104720 0.000000
vt 3.200000 -0.104720 0.000000
vt 4.800000 -0.209440 0.000000
vt 3.200000 -0.209440 0.000000
vt 4.800000 -0.314159 0.000000
vt 3.200000 -0.314159 0.000000
vt 4.800000 -0.418879 0.000000
vt 3.200000 -0.418879 0.000000
vt 4.800000 -0.523599 0.000000
vt 3.200000 -0.523599 0.000000
vt 4.800000 -0.628319 0.000000
vt 3.200000 -0.628319 0.000000
vt 4.800000 -0.733038 0.000000
vt 3.200000 -0.733038 0.000000
vt 4.800000 -0.837758 0.000000
vt 3.200000 -0.837758 0.000000
vt 4.800000 -0.942478 0.000000
vt 3.200000 -0.942478 0.000000
vt 4.800000 -1.047198 0.000000
vt 3.200000 -1.047198 0.000000
vt 0.000000 1.151917 0.000000
vt 1.600000 1.151917 0.000000
vt 0.000000 1.256637 0.000000
vt 1.600000 1.256637 0.000000
vt 0.000000 -1.256637 0.000000
vt 1.600000 -1.256637 0.000000
vt 0.000000 -1.151917 0.000000
vt 1.600000 -1.151917 0.000000
vt 0.000000 -1.047198 0.000000
vt 1.600000 -1.047198 0.000000
vt 0.000000 -0.942478 0.000000
vt 1.600000 -0.942478 0.000000
vt 0.000000 -0.837758 0.000000
vt 1.600000 -0.837758 0.000000
vt 0.000000 -0.733038 0.000000
vt 1.600000 -0.733038 0.000000
vt 0.000000 -0.628319 0.000000
vt 1.600000 -0.628319 0.000000
vt 0.000000 -0.523599 0.000000
vt 1.600000 -0.523599 0.000000
vt 0.000000 -0.418879 0.000000
vt 1.600000 -0.418879 0.000000
vt 0.000000 -0.314159 0.000000
vt 1.600000 -0.314159 0.000000
vt 0.000000 -0.209440 0.000000
vt 1.600000 -0.209440 0.000000
vt 0.000000 -0.104720 0.000000
vt 1.600000 -0.104720 0.000000
vt 0.000000 0.000000 0.000000
vt 1.600000 0.000000 0.000000
vt 0.000000 0.104720 0.000000
vt 1.600000 0.104720 0.000000
vt 0.000000 0.209440 0.000000
vt 1.600000 0.209440 0.000000
vt 0.000000 0.314159 0.000000
vt 1.600000 0.314159 0.000000
vt 0.000000 0.418879 0.000000
vt 1.600000 0.418879 0.000000
vt 0.000000 0.523599 0.000000
vt 1.600000 0.523599 0.000000
vt 0.000000 0.628319 0.000000
vt 1.600000 0.628319 0.000000
vt -0.000000 0.733038 0.000000
vt 1.600000 0.733038 0.000000
vt 0.000000 0.837758 0.000000
vt 1.600000 0.837758 0.000000
vt 0.000000 0.942478 0.000000
vt 1.600000 0.942478 0.000000
vt -0.000000 1.047198 0.000000
vt 1.600000 1.047198 0.000000
vt 4.800000 -1.151917 0.000000
vt 3.200000 -1.151917 0.000000
vt 4.800000 -1.256637 0.000000
vt 3.200000 -1.256637 0.000000
vt 4.800000 1.256637 0.000000
vt 3.200000 1.256637 0.000000
vt 4.800000 1.151917 0.000000
vt 3.200000 1.151917 0.000000
vt 4.800000 1.047198 0.000000
vt 3.200000 1.047198 0.000000
vt 4.800000 0.942478 0.000000
vt 3.200000 0.942478 0.000000
vt 4.800000 0.837758 0.000000
vt 3.200000 0.837758 0.000000
vt 4.800000 0.733038 0.000000
vt 3.200000 0.733038 0.000000
vt 4.800000 0.628319 0.000000
vt 3.200000 0.628319 0.000000
vt 4.800000 0.523599 0.000000
vt 3.200000 0.523599 0.000000
vt 4.800000 0.418879 0.000000
vt 3.200000 0.418879 0.000000
vt 4.800000 0.314159 0.000000
vt 3.200000 0.314159 0.000000
vt 4.800000 0.209440 0.000000
vt 3.200000 0.209440 0.000000
vt 4.800000 0.104720 0.000000
vt 3.200000 0.104720 0.000000
vt 4.800000 0.000000 0.000000
vt 3.200000 0.000000 0.000000
vt 4.800000 -0.104720 0.000000
vt 3.200000 -0.104720 0.000000
vt 4.800000 -0.209440 0.000000
vt 3.200000 -0.209440 0.000000
vt 4.800000 -0.314159 0.000000
vt 3.200000 -0.314159 0.000000
vt 4.800000 -0.418879 0.000000
vt 3.200000 -0.418879 0.000000
vt 4.800000 -0.523599 0.000000
vt 3.200000 -0.523599 0.000000
vt 4.800000 -0.628319 0.000000
vt 3.200000 -0.628319 0.000000
vt 4.800000 -0.733038 0.000000
vt 3.200000 -0.733038 0.000000
vt 4.800000 -0.837758 0.000000
vt 3.200000 -0.837758 0.000000
vt 4.800000 -0.942478 0.000000
vt 3.200000 -0.942478 0.000000
vt 4.800000 -1.047198 0.000000
vt 3.200000 -1.047198 0.000000
vt 0.000000 1.151917 0.000000
vt 1.600000 1.151917 0.000000
vt -0.000000 1.256637 0.000000
vt 1.600000 1.256637 0.000000
vt -0.000000 -1.256637 0.000000
vt 1.600000 -1.256637 0.000000
vt 0.000000 -1.151917 0.000000
vt 1.600000 -1.151917 0.000000
vt 0.000000 -1.047198 0.000000
vt 1.600000 -1.047198 0.000000
vt 0.000000 -0.942478 0.000000
vt 1.600000 -0.942478 0.000000
vt 0.000000 -0.837758 0.000000
vt 1.600000 -0.837758 0.000000
vt 0.000000 -0.733038 0.000000
vt 1.600000 -0.733038 0.000000
vt 0.000000 -0.628319 0.000000
vt 1.600000 -0.628319 0.000000
vt 0.000000 -0.523599 0.000000
vt 1.600000 -0.523599 0.000000
vt 0.000000 -0.418879 0.000000
vt 1.600000 -0.418879 0.000000
vt 0.000000 -0.314159 0.000000
vt 1.600000 -0.314159 0.000000
vt 0.000000 -0.209440 0.000000
vt 1.600000 -0.209440 0.000000
vt 0.000000 -0.104720 0.000000
vt 1.600000 -0.104720 0.000000
vt 0.000000 0.000000 0.000000
vt 1.600000 0.000000 0.000000
vt 0.000000 0.104720 0.000000
vt 1.600000 0.104720 0.000000
vt 0.000000 0.209440 0.000000
vt 1.600000 0.209440 0.000000
vt 0.000000 0.314159 0.000000
vt 1.600000 0.314159 0.000000
vt 0.000000 0.418879 0.000000
vt 1.600000 0.418879 0.000000
vt 0.000000 0.523599 0.000000
vt 1.600000 0.523599 0.000000
vt 0.000000 0.628319 0.000000
vt 1.600000 0.628319 0.000000
vt -0.000000 0.733038 0.000000
vt 1.600000 0.733038 0.000000
vt 0.000000 0.837758 0.000000
vt 1.600000 0.837758 0.000000
vt 0.000000 0.942478 0.000000
vt 1.600000 0.942478 0.000000
vt -0.000000 1.047198 0.000000
vt 1.600000 1.047198 0.000000
vt 4.800000 -1.439897 0.000000
vt 2.400000 -1.439897 0.000000
vt 4.800000 -1.570796 0.000000
vt 2.400000 -1.570796 0.000000
vt 4.800000 1.570796 0.000000
vt 2.400000 1.570796 0.000000
vt 4.800000 1.439897 0.000000
vt 2.400000 1.439897 0.000000
vt 4.800000 1.308997 0.000000
vt 2.400000 1.308997 0.000000
vt 4.800000 1.178097 0.000000
vt 2.400000 1.178097 0.000000
vt 4.800000 1.047198 0.000000
vt 2.400000 1.047198 0.000000
vt 4.800000 0.916298 0.000000
vt 2.400000 0.916298 0.000000
vt 4.800000 0.785398 0.000000
vt 2.400000 0.785398 0.000000
vt 4.800000 0.654498 0.000000
vt 2.400000 0.654498 0.000000
vt 4.800000 0.523599 0.000000
vt 2.400000 0.523599 0.000000
vt 4.800000 0.392699 0.000000
vt 2.400000 0.392699 0.000000
vt 4.800000 0.261799 0.000000
vt 2.400000 0.261799 0.000000
vt 4.800000 0.130900 0.000000
vt 2.400000 0.130900 0.000000
vt 4.800000 0.000000 0.000000
vt 2.400000 0.000000 0.000000
vt 4.800000 -0.130900 0.000000
vt 2.400000 -0.130900 0.000000
vt 4.800000 -0.261799 0.000000
vt 2.400000 -0.261799 0.000000
vt 4.800000 -0.392699 0.000000
vt 2.400000 -0.392699 0.000000
vt 4.800000 -0.523599 0.000000
vt 2.400000 -0.523599 0.000000
vt 4.800000 -0.654498 0.000000
vt 2.400000 -0.654498 0.000000
vt 4.800000 -0.785398 0.000000
vt 2.400000 -0.785398 0.000000
vt 4.800000 -0.916298 0.000000
vt 2.400000 -0.916298 0.000000
vt 4.800000 -1.047198 0.000000
vt 2.400000 -1.047198 0.000000
vt 4.800000 -1.178097 0.000000
vt 2.400000 -1.178097 0.000000
vt 4.800000 -1.308997 0.000000
vt 2.400000 -1.308997 0.000000
vt -0.000000 1.439897 0.000000
vt -0.000000 1.570796 0.000000
vt -0.000000 -1.570796 0.000000
vt 0.000000 -1.439897 0.000000
vt 0.000000 -1.308997 0.000000
vt 0.000000 -1.178097 0.000000
vt 0.000000 -1.047198 0.000000
vt 0.000000 -0.916298 0.000000
vt 0.000000 -0.785398 0.000000
vt 0.000000 -0.654498 0.000000
vt 0.000000 -0.523599 0.000000
vt 0.000000 -0.392699 0.000000
vt 0.000000 -0.261799 0.000000
vt 0.000000 -0.130900 0.000000
vt 0.000000 0.000000 0.000000
vt 0.000000 0.130900 0.000000
vt 0.000000 0.261799 0.000000
vt 0.000000 0.392699 0.000000
vt 0.000000 0.523599 0.000000
vt 0.000000 0.654498 0.000000
vt 0.000000 0.785398 0.000000
vt -0.000000 0.916298 0.000000
vt -0.000000 1.047198 0.000000
vt -0.000000 1.178097 0.000000
vt -0.000000 1.308997 0.000000
vt -0.000000 0.000000 0.000000
vt 2.013220 0.000000 0.000000
vt -0.000000 4.800000 0.000000
vt 2.013220 4.800000 0.000000
vt 4.800000 4.182496 0.000000
vt -0.000000 4.182496 0.000000
vt 4.800000 3.659684 0.000000
vt 0.000000 3.659684 0.000000
vt 4.800000 3.136872 0.000000
vt 0.000000 3.136872 0.000000
vt 4.800000 2.614060 0.000000
vt 0.000000 2.614060 0.000000
vt 4.800000 2.091248 0.000000
vt 0.000000 2.091248 0.000000
vt 4.800000 1.568436 0.000000
vt 0.000000 1.568436 0.000000
vt 4.800000 1.045624 0.000000
vt -0.000000 1.045624 0.000000
vt 4.800000 0.522812 0.000000
vt 0.000000 0.522812 0.000000
vt 4.800000 -0.000000 0.000000
vt 0.000000 -0.000000 0.000000
vt -0.000000 0.000000 0.000000
vt 0.293078 0.000000 0.000000
vt 0.000000 4.800000 0.000000
vt 0.293078 4.800000 0.000000
vt -4.800000 -0.821221 0.000000
vt -0.000000 -0.821221 0.000000
vt -4.800000 -0.565938 0.000000
vt -0.000000 -0.565938 0.000000
vt -4.800000 -0.310655 0.000000
vt -0.000000 -0.310655 0.000000
vt -4.800000 -0.055372 0.000000
vt -0.000000 -0.055372 0.000000
vt -4.800000 0.199911 0.000000
vt -0.000000 0.199911 0.000000
vt -4.800000 0.455195 0.000000
vt -0.000000 0.455195 0.000000
vt -4.800000 0.710478 0.000000
vt -0.000000 0.710478 0.000000
vt -4.800000 0.965761 0.000000
vt -0.000000 0.965761 0.000000
vt -4.800000 1.221044 0.000000
vt -0.000000 1.221044 0.000000
vt -4.800000 1.476327 0.000000
vt -0.000000 1.476327 0.000000
vt -4.800000 1.731611 0.000000
vt -0.000000 1.731611 0.000000
vt -4.800000 1.986894 0.000000
vt -0.000000 1.986894 0.000000
vt -4.800000 2.242177 0.000000
vt -0.000000 2.242177 0.000000
vt 0.000000 0.000000 0.000000
vt 3.494501 0.000000 0.000000
vt 0.000000 4.800000 0.000000
vt 3.494501 4.800000 0.000000
vt -4.800000 -0.000000 0.000000
vt -0.000000 -0.000000 0.000000
vt -4.800000 0.210516 0.000000
vt -0.000000 0.210516 0.000000
vt -0.000000 0.421031 0.000000
vt -4.800000 0.421031 0.000000
vt -0.000000 0.631547 0.000000
vt -4.800000 0.631547 0.000000
vt -0.000000 0.842062 0.000000
vt -4.800000 0.842062 0.000000
vt -4.800000 1.052578 0.000000
vt -0.000000 1.052578 0.000000
vt 0.000000 0.000000 0.000000
vt 5.004076 0.000000 0.000000
vt 0.000000 4.800000 0.000000
vt 5.004076 4.800000 0.000000
vt -4.800000 1.614032 0.000000
vt -0.000000 1.614032 0.000000
vt -4.800000 1.986926 0.000000
vt -0.000000 1.986926 0.000000
vt -4.800000 2.359820 0.000000
vt -0.000000 2.359820 0.000000
vt -4.800000 2.732714 0.000000
vt -0.000000 2.732714 0.000000
vt -4.800000 3.105608 0.000000
vt -0.000000 3.105608 0.000000
vt -4.800000 3.478502 0.000000
vt -0.000000 3.478502 0.000000
vt -4.800000 3.851396 0.000000
vt -0.000000 3.851396 0.000000
vt -4.800000 4.224290 0.000000
vt -0.000000 4.224290 0.000000
vt -4.800000 4.597184 0.000000
vt -0.000000 4.597184 0.000000
vt -4.800000 4.970078 0.000000
vt -0.000000 4.970078 0.000000
vt -4.800000 5.342972 0.000000
vt -0.000000 5.342972 0.000000
vt -4.800000 5.715866 0.000000
vt -0.000000 5.715866 0.000000
vt -4.800000 6.088760 0.000000
vt -0.000000 6.088760 0.000000
vt -4.800000 6.461654 0.000000
vt -0.000000 6.461654 0.000000
vt -4.800000 6.834548 0.000000
vt -0.000000 6.834548 0.000000
vt 0.915680 -1.387578 0.000000
vt 0.902050 -1.284050 0.000000
vt -3.772451 -0.745339 0.000000
vt 0.915680 -1.180522 0.000000
vt 0.955640 -1.084050 0.000000
vt 1.019207 -1.001207 0.000000
vt -3.059950 0.301037 0.000000
vt -3.180540 0.251087 0.000000
vt 1.102050 -0.937640 0.000000
vt 0.185876 0.693127 0.000000
vt -2.956397 0.380497 0.000000
vt -0.317625 0.831434 0.000000
vt -2.876937 0.484050 0.000000
vt -2.826987 0.604640 0.000000
vt -0.789517 1.054948 0.000000
vt -2.809950 0.734050 0.000000
vt -2.826987 0.863460 0.000000
vt -2.876937 0.984050 0.000000
vt -2.956397 1.087603 0.000000
vt -3.059950 1.167063 0.000000
vt -2.527062 2.071804 0.000000
vt -3.180540 1.217013 0.000000
vt -3.309950 1.234050 0.000000
vt -4.276602 1.945695 0.000000
vt -3.439360 1.217013 0.000000
vt -4.537453 1.680484 0.000000
vt -3.559950 1.167063 0.000000
vt -4.727602 1.360759 0.000000
vt -3.663503 1.087603 0.000000
vt -4.836096 1.004936 0.000000
vt -3.742963 0.984050 0.000000
vt -3.792913 0.863460 0.000000
vt -3.809950 0.734050 0.000000
vt -4.856686 0.633511 0.000000
vt -3.792913 0.604640 0.000000
vt -3.742963 0.484050 0.000000
vt -4.788186 0.267877 0.000000
vt -3.663503 0.380497 0.000000
vt -3.559950 0.301037 0.000000
vt -4.634542 -0.070906 0.000000
vt -3.439360 0.251087 0.000000
vt -4.404604 -0.363325 0.000000
vt -3.309950 0.234050 0.000000
vt -4.111615 -0.592537 0.000000
vt 1.198522 -0.897680 0.000000
vt 0.705731 0.644217 0.000000
vt 1.302050 -0.884050 0.000000
vt 1.226192 0.686185 0.000000
vt 1.405578 -0.897680 0.000000
vt 1.731493 0.817760 0.000000
vt 3.756422 0.710480 0.000000
vt 3.659950 0.750440 0.000000
vt 4.541278 0.364871 0.000000
vt 1.502050 -0.937640 0.000000
vt 1.584893 -1.001207 0.000000
vt 1.648460 -1.084050 0.000000
vt 1.688420 -1.180522 0.000000
vt 1.702050 -1.284050 0.000000
vt 1.983378 -2.016029 0.000000
vt 1.688420 -1.387578 0.000000
vt 1.648460 -1.484050 0.000000
vt 1.584893 -1.566893 0.000000
vt 1.502050 -1.630460 0.000000
vt 1.405578 -1.670420 0.000000
vt 1.302050 -1.684050 0.000000
vt 1.815379 -2.142242 0.000000
vt 1.624715 -2.230563 0.000000
vt 1.003662 -2.238495 0.000000
vt 1.419804 -2.277093 0.000000
vt 1.209694 -2.279776 0.000000
vt 1.198522 -1.670420 0.000000
vt 1.102050 -1.630460 0.000000
vt 1.019207 -1.566893 0.000000
vt 0.955640 -1.484050 0.000000
vt 3.473580 1.200378 0.000000
vt 2.636309 1.331194 0.000000
vt 3.459950 1.096850 0.000000
vt 2.206327 1.034956 0.000000
vt 3.473580 0.993322 0.000000
vt 3.513540 0.896850 0.000000
vt 3.577107 0.814007 0.000000
vt 3.513540 1.296850 0.000000
vt 3.577107 1.379693 0.000000
vt 3.008413 1.697499 0.000000
vt 3.659950 1.443260 0.000000
vt 3.756422 1.483220 0.000000
vt 3.237882 1.879814 0.000000
vt 3.859950 1.496850 0.000000
vt 3.455756 2.011523 0.000000
vt 4.202615 2.036308 0.000000
vt 3.699828 2.083947 0.000000
vt 3.954279 2.092391 0.000000
vt 4.428741 1.919332 0.000000
vt 3.963478 1.483220 0.000000
vt 4.618000 1.749046 0.000000
vt 4.059950 1.443260 0.000000
vt 4.758126 1.536487 0.000000
vt 4.142793 1.379693 0.000000
vt 4.206360 1.296850 0.000000
vt 4.840034 1.295432 0.000000
vt 4.246320 1.200378 0.000000
vt 4.858417 1.041506 0.000000
vt 4.259950 1.096850 0.000000
vt 4.246320 0.993322 0.000000
vt 4.812084 0.791168 0.000000
vt 4.206360 0.896850 0.000000
vt 4.142793 0.814007 0.000000
vt 4.704036 0.560642 0.000000
vt 4.059950 0.750440 0.000000
vt 3.963478 0.710480 0.000000
vt 3.859950 0.696850 0.000000
vt -3.960073 2.141118 0.000000
vt -2.868346 2.219811 0.000000
vt -3.606098 2.255496 0.000000
vt -3.235065 2.282240 0.000000
vt -0.915680 -1.180522 0.000000
vt -0.902050 -1.284050 0.000000
vt 3.772451 -0.745339 0.000000
vt -0.915680 -1.387578 0.000000
vt -0.955640 -1.484050 0.000000
vt -1.003662 -2.238495 0.000000
vt -1.019207 -1.566893 0.000000
vt -1.102050 -1.630460 0.000000
vt -1.198522 -1.670420 0.000000
vt -1.302050 -1.684050 0.000000
vt -1.624715 -2.230563 0.000000
vt -1.815379 -2.142242 0.000000
vt -1.983378 -2.016029 0.000000
vt -1.405578 -1.670420 0.000000
vt -1.502050 -1.630460 0.000000
vt -1.584893 -1.566893 0.000000
vt -1.648460 -1.484050 0.000000
vt -1.688420 -1.387578 0.000000
vt -1.702050 -1.284050 0.000000
vt -4.541278 0.364871 0.000000
vt -1.688420 -1.180522 0.000000
vt -1.648460 -1.084050 0.000000
vt -1.584893 -1.001207 0.000000
vt -1.502050 -0.937640 0.000000
vt -1.405578 -0.897680 0.000000
vt -1.302050 -0.884050 0.000000
vt -1.226192 0.686185 0.000000
vt -1.731493 0.817760 0.000000
vt -3.756422 0.710480 0.000000
vt -3.659950 0.750440 0.000000
vt -3.577107 0.814007 0.000000
vt -2.206327 1.034956 0.000000
vt -3.513540 0.896850 0.000000
vt -3.473580 0.993322 0.000000
vt -3.459950 1.096850 0.000000
vt -2.636309 1.331194 0.000000
vt -3.473580 1.200378 0.000000
vt -3.513540 1.296850 0.000000
vt -3.577107 1.379693 0.000000
vt -3.008413 1.697499 0.000000
vt -3.659950 1.443260 0.000000
vt -3.756422 1.483220 0.000000
vt -3.237882 1.879814 0.000000
vt -3.859950 1.496850 0.000000
vt -3.455756 2.011523 0.000000
vt -4.202615 2.036308 0.000000
vt -3.699828 2.083947 0.000000
vt -3.954279 2.092391 0.000000
vt -0.705731 0.644217 0.000000
vt -1.198522 -0.897680 0.000000
vt -0.185876 0.693127 0.000000
vt -1.102050 -0.937640 0.000000
vt 3.059950 0.301037 0.000000
vt -1.019207 -1.001207 0.000000
vt -0.955640 -1.084050 0.000000
vt -3.859950 0.696850 0.000000
vt -3.963478 0.710480 0.000000
vt -4.704036 0.560642 0.000000
vt -4.059950 0.750440 0.000000
vt -4.142793 0.814007 0.000000
vt -4.812084 0.791168 0.000000
vt -4.206360 0.896850 0.000000
vt -4.246320 0.993322 0.000000
vt -4.858417 1.041506 0.000000
vt -4.259950 1.096850 0.000000
vt -4.246320 1.200378 0.000000
vt -4.840034 1.295432 0.000000
vt -4.206360 1.296850 0.000000
vt -4.758126 1.536487 0.000000
vt -4.142793 1.379693 0.000000
vt -4.059950 1.443260 0.000000
vt -4.618000 1.749046 0.000000
vt -3.963478 1.483220 0.000000
vt -4.428741 1.919332 0.000000
vt 3.792913 0.604640 0.000000
vt 4.856686 0.633511 0.000000
vt 3.809950 0.734050 0.000000
vt 4.836096 1.004936 0.000000
vt 3.792913 0.863460 0.000000
vt 3.742963 0.984050 0.000000
vt 3.663503 1.087603 0.000000
vt 4.727602 1.360759 0.000000
vt 3.559950 1.167063 0.000000
vt 4.537453 1.680484 0.000000
vt 3.439360 1.217013 0.000000
vt 4.276602 1.945695 0.000000
vt 3.309950 1.234050 0.000000
vt 2.527062 2.071804 0.000000
vt 3.180540 1.217013 0.000000
vt 3.059950 1.167063 0.000000
vt 0.789517 1.054948 0.000000
vt 2.956397 1.087603 0.000000
vt 2.876937 0.984050 0.000000
vt 2.826987 0.863460 0.000000
vt 2.809950 0.734050 0.000000
vt 2.826987 0.604640 0.000000
vt 0.317625 0.831434 0.000000
vt 2.876937 0.484050 0.000000
vt 2.956397 0.380497 0.000000
vt 3.742963 0.484050 0.000000
vt 4.788186 0.267877 0.000000
vt 3.663503 0.380497 0.000000
vt 3.559950 0.301037 0.000000
vt 4.634542 -0.070906 0.000000
vt 3.439360 0.251087 0.000000
vt 4.404604 -0.363325 0.000000
vt 3.309950 0.234050 0.000000
vt 4.111615 -0.592537 0.000000
vt 3.180540 0.251087 0.000000
vt 3.960073 2.141118 0.000000
vt 2.868346 2.219811 0.000000
vt 3.606098 2.255496 0.000000
vt 3.235065 2.282240 0.000000
vt -1.419804 -2.277093 0.000000
vt -1.209694 -2.279776 0.000000
vn 0.965926 -0.258819 0.000000
vn 0.965926 -0.258819 0.000000
vn 1.000000 -0.000000 0.000000
vn 1.000000 -0.000000 0.000000
vn 0.965926 0.258819 0.000000
vn 0.965926 0.258819 0.000000
vn 0.866025 0.500000 0.000000
vn 0.866025 0.500000 0.000000
vn 0.707107 0.707107 0.000000
vn 0.707107 0.707107 0.000000
vn 0.500000 0.866025 0.000000
vn 0.500000 0.866025 0.000000
vn 0.258819 0.965926 0.000000
vn 0.258819 0.965926 0.000000
vn -0.000000 1.000000 0.000000
vn -0.000000 1.000000 0.000000
vn -0.258819 0.965926 0.000000
vn -0.258819 0.965926 0.000000
vn -0.500000 0.866025 0.000000
vn -0.500000 0.866025 0.000000
vn -0.707107 0.707107 0.000000
vn -0.707107 0.707107 0.000000
vn -0.866025 0.500000 0.000000
vn -0.866025 0.500000 0.000000
vn -0.965926 0.258819 0.000000
vn -0.965926 0.258819 0.000000
vn -1.000000 -0.000000 -0.000000
vn -1.000000 -0.000000 -0.000000
vn -0.965926 -0.258819 -0.000000
vn -0.965926 -0.258819 -0.000000
vn -0.866025 -0.500000 -0.000000
vn -0.866025 -0.500000 -0.000000
vn -0.707107 -0.707107 -0.000000
vn -0.707107 -0.707107 -0.000000
vn -0.500000 -0.866025 -0.000000
vn -0.500000 -0.866025 -0.000000
vn -0.258819 -0.965926 -0.000000
vn -0.258819 -0.965926 -0.000000
vn -0.000000 -1.000000 -0.000000
vn -0.000000 -1.000000 -0.000000
vn 0.258819 -0.965926 0.000000
vn 0.258819 -0.965926 0.000000
vn 0.500000 -0.866025 0.000000
vn 0.500000 -0.866025 0.000000
vn 0.707107 -0.707107 0.000000
vn 0.707107 -0.707107 0.000000
vn 0.866025 -0.500000 0.000000
vn 0.866025 -0.500000 0.000000
vn 0.965926 0.258819 0.000000
vn 0.965926 0.258819 0.000000
vn 1.000000 0.000000 0.000000
vn 1.000000 0.000000 0.000000
vn 0.965926 -0.258819 0.000000
vn 0.965926 -0.258819 0.000000
vn 0.866025 -0.500000 0.000000
vn 0.866025 -0.500000 0.000000
vn 0.707107 -0.707107 0.000000
vn 0.707107 -0.707107 0.000000
vn 0.500000 -0.866025 0.000000
vn 0.500000 -0.866025 0.000000
vn 0.258819 -0.965926 0.000000
vn 0.258819 -0.965926 0.000000
vn -0.000000 -1.000000 -0.000000
vn -0.000000 -1.000000 -0.000000
vn -0.258819 -0.965926 -0.000000
vn -0.258819 -0.965926 -0.000000
vn -0.500000 -0.866025 -0.000000
vn -0.500000 -0.866025 -0.000000
vn -0.707107 -0.707107 -0.000000
vn -0.707107 -0.707107 -0.000000
vn -0.866025 -0.500000 -0.000000
vn -0.866025 -0.500000 -0.000000
vn -0.965926 -0.258819 -0.000000
vn -0.965926 -0.258819 -0.000000
vn -1.000000 -0.000000 -0.000000
vn -1.000000 -0.000000 -0.000000
vn -0.965926 0.258819 0.000000
vn -0.965926 0.258819 0.000000
vn -0.866025 0.500000 0.000000
vn -0.866025 0.500000 0.000000
vn -0.707107 0.707107 0.000000
vn -0.707107 0.707107 0.000000
vn -0.500000 0.866025 0.000000
vn -0.500000 0.866025 0.000000
vn -0.258819 0.965926 0.000000
vn -0.258819 0.965926 0.000000
vn -0.000000 1.000000 0.000000
vn -0.000000 1.000000 0.000000
vn 0.258819 0.965926 0.000000
vn 0.258819 0.965926 0.000000
vn 0.500000 0.866025 0.000000
vn 0.500000 0.866025 0.000000
vn 0.707107 0.707107 0.000000
vn 0.707107 0.707107 0.000000
vn 0.866025 0.500000 0.000000
vn 0.866025 0.500000 0.000000
vn 0.965926 -0.258819 0.000000
vn 0.965926 -0.258819 0.000000
vn 1.000000 -0.000000 0.000000
vn 1.000000 -0.000000 0.000000
vn 0.965926 0.258819 0.000000
vn 0.965926 0.258819 0.000000
vn 0.866025 0.500000 0.000000
vn 0.866025 0.500000 0.000000
vn 0.707107 0.707107 0.000000
vn 0.707107 0.707107 0.000000
vn 0.500000 0.866025 0.000000
vn 0.500000 0.866025 0.000000
vn 0.258819 0.965926 0.000000
vn 0.258819 0.965926 0.000000
vn -0.000000 1.000000 0.000000
vn -0.000000 1.000000 0.000000
vn -0.258819 0.965926 0.000000
vn -0.258819 0.965926 0.000000
vn -0.500000 0.866025 0.000000
vn -0.500000 0.866025 0.000000
vn -0.707107 0.707107 0.000000
vn -0.707107 0.707107 0.000000
vn -0.866025 0.500000 0.000000
vn -0.866025 0.500000 0.000000
vn -0.965926 0.258819 0.000000
vn -0.965926 0.258819 0.000000
vn -1.000000 -0.000000 -0.000000
vn -1.000000 -0.000000 -0.000000
vn -0.965926 -0.258819 -0.000000
vn -0.965926 -0.258819 -0.000000
vn -0.866025 -0.500000 -0.000000
vn -0.866025 -0.500000 -0.000000
vn -0.707107 -0.707107 -0.000000
vn -0.707107 -0.707107 -0.000000
vn -0.500000 -0.866025 -0.000000
vn -0.500000 -0.866025 -0.000000
vn -0.258819 -0.965926 -0.000000
vn -0.258819 -0.965926 -0.000000
vn -0.000000 -1.000000 -0.000000
vn -0.000000 -1.000000 -0.000000
vn 0.258819 -0.965926 0.000000
vn 0.258819 -0.965926 0.000000
vn 0.500000 -0.866025 0.000000
vn 0.500000 -0.866025 0.000000
vn 0.707107 -0.707107 0.000000
vn 0.707107 -0.707107 0.000000
vn 0.866025 -0.500000 0.000000
vn 0.866025 -0.500000 0.000000
vn 0.965926 0.258819 0.000000
vn 0.965926 0.258819 0.000000
vn 1.000000 0.000000 0.000000
vn 1.000000 0.000000 0.000000
vn 0.965926 -0.258819 0.000000
vn 0.965926 -0.258819 0.000000
vn 0.866025 -0.500000 0.000000
vn 0.866025 -0.500000 0.000000
vn 0.707107 -0.707107 0.000000
vn 0.707107 -0.707107 0.000000
vn 0.500000 -0.866025 0.000000
vn 0.500000 -0.866025 0.000000
vn 0.258819 -0.965926 0.000000
vn 0.258819 -0.965926 0.000000
vn -0.000000 -1.000000 -0.000000
vn -0.000000 -1.000000 -0.000000
vn -0.258819 -0.965926 -0.000000
vn -0.258819 -0.965926 -0.000000
vn -0.500000 -0.866025 -0.000000
vn -0.500000 -0.866025 -0.000000
vn -0.707107 -0.707107 -0.000000
vn -0.707107 -0.707107 -0.000000
vn -0.866025 -0.500000 -0.000000
vn -0.866025 -0.500000 -0.000000
vn -0.965926 -0.258819 -0.000000
vn -0.965926 -0.258819 -0.000000
vn -1.000000 -0.000000 -0.000000
vn -1.000000 -0.000000 -0.000000
vn -0.965926 0.258819 0.000000
vn -0.965926 0.258819 0.000000
vn -0.866025 0.500000 0.000000
vn -0.866025 0.500000 0.000000
vn -0.707107 0.707107 0.000000
vn -0.707107 0.707107 0.000000
vn -0.500000 0.866025 0.000000
vn -0.500000 0.866025 0.000000
vn -0.258819 0.965926 0.000000
vn -0.258819 0.965926 0.000000
vn -0.000000 1.000000 0.000000
vn -0.000000 1.000000 0.000000
vn 0.258819 0.965926 0.000000
vn 0.258819 0.965926 0.000000
vn 0.500000 0.866025 0.000000
vn 0.500000 0.866025 0.000000
vn 0.707107 0.707107 0.000000
vn 0.707107 0.707107 0.000000
vn 0.866025 0.500000 0.000000
vn 0.866025 0.500000 0.000000
vn 0.965926 -0.258819 0.000000
vn 0.965926 -0.258819 0.000000
vn 1.000000 -0.000000 0.000000
vn 1.000000 -0.000000 0.000000
vn 0.965926 0.258819 0.000000
vn 0.965926 0.258819 0.000000
vn 0.866025 0.500000 0.000000
vn 0.866025 0.500000 0.000000
vn 0.707107 0.707107 0.000000
vn 0.707107 0.707107 0.000000
vn 0.500000 0.866025 0.000000
vn 0.500000 0.866025 0.000000
vn 0.258819 0.965926 0.000000
vn 0.258819 0.965926 0.000000
vn -0.000000 1.000000 0.000000
vn -0.000000 1.000000 0.000000
vn -0.258819 0.965926 0.000000
vn -0.258819 0.965926 0.000000
vn -0.500000 0.866025 0.000000
vn -0.500000 0.866025 0.000000
vn -0.707107 0.707107 0.000000
vn -0.707107 0.707107 0.000000
vn -0.866025 0.500000 0.000000
vn -0.866025 0.500000 0.000000
vn -0.965926 0.258819 0.000000
vn -0.965926 0.258819 0.000000
vn -1.000000 -0.000000 -0.000000
vn -1.000000 -0.000000 -0.000000
vn -0.965926 -0.258819 -0.000000
vn -0.965926 -0.258819 -0.000000
vn -0.866025 -0.500000 -0.000000
vn -0.866025 -0.500000 -0.000000
vn -0.707107 -0.707107 -0.000000
vn -0.707107 -0.707107 -0.000000
vn -0.500000 -0.866025 -0.000000
vn -0.500000 -0.866025 -0.000000
vn -0.258819 -0.965926 -0.000000
vn -0.258819 -0.965926 -0.000000
vn -0.000000 -1.000000 -0.000000
vn -0.000000 -1.000000 -0.000000
vn 0.258819 -0.965926 0.000000
vn 0.258819 -0.965926 0.000000
vn 0.500000 -0.866025 0.000000
vn 0.500000 -0.866025 0.000000
vn 0.707107 -0.707107 0.000000
vn 0.707107 -0.707107 0.000000
vn 0.866025 -0.500000 0.000000
vn 0.866025 -0.500000 0.000000
vn 0.965926 0.258819 0.000000
vn 1.000000 0.000000 0.000000
vn 0.965926 -0.258819 0.000000
vn 0.866025 -0.500000 0.000000
vn 0.707107 -0.707107 0.000000
vn 0.500000 -0.866025 0.000000
vn 0.258819 -0.965926 0.000000
vn -0.000000 -1.000000 -0.000000
vn -0.258819 -0.965926 -0.000000
vn -0.500000 -0.866025 -0.000000
vn -0.707107 -0.707107 -0.000000
vn -0.866025 -0.500000 -0.000000
vn -0.965926 -0.258819 -0.000000
vn -1.000000 -0.000000 -0.000000
vn -0.965926 0.258819 0.000000
vn -0.866025 0.500000 0.000000
vn -0.707107 0.707107 0.000000
vn -0.500000 0.866025 0.000000
vn -0.258819 0.965926 0.000000
vn -0.000000 1.000000 0.000000
vn 0.258819 0.965926 0.000000
vn 0.500000 0.866025 0.000000
vn 0.707107 0.707107 0.000000
vn 0.866025 0.500000 0.000000
vn 0.505089 0.863067 -0.000000
vn 0.505089 0.863067 -0.000000
vn 0.505089 0.863067 -0.000000
vn 0.505089 0.863067 -0.000000
vn -0.760888 0.648884 0.000000
vn -0.760888 0.648884 0.000000
vn -0.636853 0.770985 0.000000
vn -0.636853 0.770985 0.000000
vn -0.493526 0.869731 0.000000
vn -0.493526 0.869731 0.000000
vn -0.335248 0.942130 0.000000
vn -0.335248 0.942130 0.000000
vn -0.166814 0.985988 0.000000
vn -0.166814 0.985988 0.000000
vn 0.006673 0.999978 -0.000000
vn 0.006673 0.999978 -0.000000
vn 0.179958 0.983674 -0.000000
vn 0.179958 0.983674 -0.000000
vn 0.347792 0.937572 -0.000000
vn 0.347792 0.937572 -0.000000
vn -0.622068 0.782964 0.000000
vn -0.622068 0.782964 0.000000
vn -0.622068 0.782964 0.000000
vn -0.622068 0.782964 0.000000
vn 0.681328 -0.731979 -0.000000
vn 0.681328 -0.731979 -0.000000
vn 0.844086 -0.536208 -0.000000
vn 0.844086 -0.536208 -0.000000
vn 0.952134 -0.305682 -0.000000
vn 0.952134 -0.305682 -0.000000
vn 0.998467 -0.055344 -0.000000
vn 0.998467 -0.055344 -0.000000
vn 0.980084 0.198582 -0.000000
vn 0.980084 0.198582 -0.000000
vn 0.898176 0.439637 -0.000000
vn 0.898176 0.439637 -0.000000
vn 0.758050 0.652196 -0.000000
vn 0.758050 0.652196 -0.000000
vn 0.568791 0.822482 -0.000000
vn 0.568791 0.822482 -0.000000
vn 0.342665 0.939458 -0.000000
vn 0.342665 0.939458 -0.000000
vn 0.094329 0.995541 -0.000000
vn 0.094329 0.995541 -0.000000
vn -0.160122 0.987097 -0.000000
vn -0.160122 0.987097 -0.000000
vn -0.404194 0.914673 -0.000000
vn -0.404194 0.914673 -0.000000
vn -0.622068 0.782964 -0.000000
vn -0.622068 0.782964 -0.000000
vn 0.681328 -0.731979 0.000000
vn 0.681328 -0.731979 0.000000
vn -0.298388 -0.954445 0.000000
vn -0.298388 -0.954445 0.000000
vn -0.092356 -0.995726 0.000000
vn -0.092356 -0.995726 0.000000
vn 0.117754 -0.993043 -0.000000
vn 0.117754 -0.993043 -0.000000
vn 0.322665 -0.946513 -0.000000
vn 0.322665 -0.946513 -0.000000
vn 0.513329 -0.858192 -0.000000
vn 0.513329 -0.858192 -0.000000
vn -0.298388 -0.954445 0.000000
vn -0.298388 -0.954445 0.000000
vn 0.284906 0.958555 -0.000000
vn 0.284906 0.958555 -0.000000
vn 0.048313 0.998832 -0.000000
vn 0.048313 0.998832 -0.000000
vn -0.191063 0.981578 -0.000000
vn -0.191063 0.981578 -0.000000
vn -0.419434 0.907786 -0.000000
vn -0.419434 0.907786 -0.000000
vn -0.623646 0.781707 -0.000000
vn -0.623646 0.781707 -0.000000
vn -0.791937 0.610602 -0.000000
vn -0.791937 0.610602 -0.000000
vn -0.914614 0.404328 -0.000000
vn -0.914614 0.404328 -0.000000
vn -0.984610 0.174765 -0.000000
vn -0.984610 0.174765 -0.000000
vn -0.997894 -0.064864 0.000000
vn -0.997894 -0.064864 0.000000
vn -0.953701 -0.300757 0.000000
vn -0.953701 -0.300757 0.000000
vn -0.854576 -0.519327 0.000000
vn -0.854576 -0.519327 0.000000
vn -0.706228 -0.707984 0.000000
vn -0.706228 -0.707984 0.000000
vn -0.517203 -0.855863 0.000000
vn -0.517203 -0.855863 0.000000
vn 0.000000 0.000000 1.000000
vn 0.000000 0.000000 1.000000
vn 0.000000 0.000000 1.000000
vn 0.000000 0.000000 1.000000
vn 0.000000 0.000000 1.000000
vn 0.000000 0.000000 1.000000
vn 0.000000 0.000000 1.000000
vn 0.000000 0.000000 1.000000
vn 0.000000 0.000000 1.000000
vn 0.000000 0.000000 1.000000
vn 0.000000 0.000000 1.000000
vn 0.000000 0.000000 1.000000
vn 0.000000 0.000000 1.000000
vn 0.000000 0.000000 1.000000
vn 0.000000 0.000000 1.000000
vn 0.000000 0.000000 1.000000
vn 0.000000 0.000000 1.000000
vn 0.000000 0.000000 1.000000
vn 0.000000 0.000000 1.000000
vn 0.000000 0.000000 1.000000
vn 0.000000 0.000000 1.000000
vn 0.000000 0.000000 1.000000
vn 0.000000 0.000000 1.000000
vn 0.000000 0.000000 1.000000
vn 0.000000 0.000000 1.000000
vn 0.000000 0.000000 1.000000
vn 0.000000 0.000000 1.000000
vn 0.000000 0.000000 1.000000
vn 0.000000 0.000000 1.000000
vn 0.000000 0.000000 1.000000
vn 0.000000 0.000000 1.000000
vn 0.000000 0.000000 1.000000
vn 0.000000 0.000000 1.000000
vn 0.000000 0.000000 1.000000
vn 0.000000 0.000000 1.000000
vn 0.000000 0.000000 1.000000
vn 0.000000 0.000000 1.000000
vn 0.000000 0.000000 1.000000
vn 0.000000 0.000000 1.000000
vn 0.000000 0.000000 1.000000
vn 0.000000 0.000000 1.000000
vn 0.000000 0.000000 1.000000
vn 0.000000 0.000000 1.000000
vn 0.000000 0.000000 1.000000
vn 0.000000 0.000000 1.000000
vn 0.000000 0.000000 1.000000
vn 0.000000 0.000000 1.000000
vn 0.000000 0.000000 1.000000
vn 0.000000 0.000000 1.000000
vn 0.000000 0.000000 1.000000
vn 0.000000 0.000000 1.000000
vn 0.000000 0.000000 1.000000
vn 0.000000 0.000000 1.000000
vn 0.000000 0.000000 1.000000
vn 0.000000 0.000000 1.000000
vn 0.000000 0.000000 1.000000
vn 0.000000 0.000000 1.000000
vn 0.000000 0.000000 1.000000
vn 0.000000 0.000000 1.000000
vn 0.000000 0.000000 1.000000
vn 0.000000 0.000000 1.000000
vn 0.000000 0.000000 1.000000
vn 0.000000 0.000000 1.000000
vn 0.000000 0.000000 1.000000
vn 0.000000 0.000000 1.000000
vn 0.000000 0.000000 1.000000
vn 0.000000 0.000000 1.000000
vn 0.000000 0.000000 1.000000
vn 0.000000 0.000000 1.000000
vn 0.000000 0.000000 1.000000
vn 0.000000 0.000000 1.000000
vn 0.000000 0.000000 1.000000
vn 0.000000 0.000000 1.000000
vn 0.000000 0.000000 1.000000
vn 0.000000 0.000000 1.000000
vn 0.000000 0.000000 1.000000
vn 0.000000 0.000000 1.000000
vn 0.000000 0.000000 1.000000
vn 0.000000 0.000000 1.000000
vn 0.000000 0.000000 1.000000
vn 0.000000 0.000000 1.000000
vn 0.000000 0.000000 1.000000
vn 0.000000 0.000000 1.000000
vn 0.000000 0.000000 1.000000
vn 0.000000 0.000000 1.000000
vn 0.000000 0.000000 1.000000
vn 0.000000 0.000000 1.000000
vn 0.000000 0.000000 1.000000
vn 0.000000 0.000000 1.000000
vn 0.000000 0.000000 1.000000
vn 0.000000 0.000000 1.000000
vn 0.000000 0.000000 1.000000
vn 0.000000 0.000000 1.000000
vn 0.000000 0.000000 1.000000
vn 0.000000 0.000000 1.000000
vn 0.000000 0.000000 1.000000
vn 0.000000 0.000000 1.000000
vn 0.000000 0.000000 1.000000
vn 0.000000 0.000000 1.000000
vn 0.000000 0.000000 1.000000
vn 0.000000 0.000000 1.000000
vn 0.000000 0.000000 1.000000
vn 0.000000 0.000000 1.000000
vn 0.000000 0.000000 1.000000
vn 0.000000 0.000000 1.000000
vn 0.000000 0.000000 1.000000
vn 0.000000 0.000000 1.000000
vn 0.000000 0.000000 1.000000
vn 0.000000 0.000000 1.000000
vn 0.000000 0.000000 1.000000
vn 0.000000 0.000000 1.000000
vn 0.000000 0.000000 1.000000
vn 0.000000 0.000000 1.000000
vn 0.000000 0.000000 1.000000
vn 0.000000 0.000000 1.000000
vn -0.000000 -0.000000 -1.000000
vn -0.000000 -0.000000 -1.000000
vn -0.000000 -0.000000 -1.000000
vn -0.000000 -0.000000 -1.000000
vn -0.000000 -0.000000 -1.000000
vn -0.000000 -0.000000 -1.000000
vn -0.000000 -0.000000 -1.000000
vn -0.000000 -0.000000 -1.000000
vn -0.000000 -0.000000 -1.000000
vn -0.000000 -0.000000 -1.000000
vn -0.000000 -0.000000 -1.000000
vn -0.000000 -0.000000 -1.000000
vn -0.000000 -0.000000 -1.000000
vn -0.000000 -0.000000 -1.000000
vn -0.000000 -0.000000 -1.000000
vn -0.000000 -0.000000 -1.000000
vn -0.000000 -0.000000 -1.000000
vn -0.000000 -0.000000 -1.000000
vn -0.000000 -0.000000 -1.000000
vn -0.000000 -0.000000 -1.000000
vn -0.000000 -0.000000 -1.000000
vn -0.000000 -0.000000 -1.000000
vn -0.000000 -0.000000 -1.000000
vn -0.000000 -0.000000 -1.000000
vn -0.000000 -0.000000 -1.000000
vn -0.000000 -0.000000 -1.000000
vn -0.000000 -0.000000 -1.000000
vn -0.000000 -0.000000 -1.000000
vn -0.000000 -0.000000 -1.000000
vn -0.000000 -0.000000 -1.000000
vn -0.000000 -0.000000 -1.000000
vn -0.000000 -0.000000 -1.000000
vn -0.000000 -0.000000 -1.000000
vn -0.000000 -0.000000 -1.000000
vn -0.000000 -0.000000 -1.000000
vn -0.000000 -0.000000 -1.000000
vn -0.000000 -0.000000 -1.000000
vn -0.000000 -0.000000 -1.000000
vn -0.000000 -0.000000 -1.000000
vn -0.000000 -0.000000 -1.000000
vn -0.000000 -0.000000 -1.000000
vn -0.000000 -0.000000 -1.000000
vn -0.000000 -0.000000 -1.000000
vn -0.000000 -0.000000 -1.000000
vn -0.000000 -0.000000 -1.000000
vn -0.000000 -0.000000 -1.000000
vn -0.000000 -0.000000 -1.000000
vn -0.000000 -0.000000 -1.000000
vn -0.000000 -0.000000 -1.000000
vn -0.000000 -0.000000 -1.000000
vn -0.000000 -0.000000 -1.000000
vn -0.000000 -0.000000 -1.000000
vn -0.000000 -0.000000 -1.000000
vn -0.000000 -0.000000 -1.000000
vn -0.000000 -0.000000 -1.000000
vn -0.000000 -0.000000 -1.000000
vn -0.000000 -0.000000 -1.000000
vn -0.000000 -0.000000 -1.000000
vn -0.000000 -0.000000 -1.000000
vn -0.000000 -0.000000 -1.000000
vn -0.000000 -0.000000 -1.000000
vn -0.000000 -0.000000 -1.000000
vn -0.000000 -0.000000 -1.000000
vn -0.000000 -0.000000 -1.000000
vn -0.000000 -0.000000 -1.000000
vn -0.000000 -0.000000 -1.000000
vn -0.000000 -0.000000 -1.000000
vn -0.000000 -0.000000 -1.000000
vn -0.000000 -0.000000 -1.000000
vn -0.000000 -0.000000 -1.000000
vn -0.000000 -0.000000 -1.000000
vn -0.000000 -0.000000 -1.000000
vn -0.000000 -0.000000 -1.000000
vn -0.000000 -0.000000 -1.000000
vn -0.000000 -0.000000 -1.000000
vn -0.000000 -0.000000 -1.000000
vn -0.000000 -0.000000 -1.000000
vn -0.000000 -0.000000 -1.000000
vn -0.000000 -0.000000 -1.000000
vn -0.000000 -0.000000 -1.000000
vn -0.000000 -0.000000 -1.000000
vn -0.000000 -0.000000 -1.000000
vn -0.000000 -0.000000 -1.000000
vn -0.000000 -0.000000 -1.000000
vn -0.000000 -0.000000 -1.000000
vn -0.000000 -0.000000 -1.000000
vn -0.000000 -0.000000 -1.000000
vn -0.000000 -0.000000 -1.000000
vn -0.000000 -0.000000 -1.000000
vn -0.000000 -0.000000 -1.000000
vn -0.000000 -0.000000 -1.000000
vn -0.000000 -0.000000 -1.000000
vn -0.000000 -0.000000 -1.000000
vn -0.000000 -0.000000 -1.000000
vn -0.000000 -0.000000 -1.000000
vn -0.000000 -0.000000 -1.000000
vn -0.000000 -0.000000 -1.000000
vn -0.000000 -0.000000 -1.000000
vn -0.000000 -0.000000 -1.000000
vn -0.000000 -0.000000 -1.000000
vn -0.000000 -0.000000 -1.000000
vn -0.000000 -0.000000 -1.000000
vn -0.000000 -0.000000 -1.000000
vn -0.000000 -0.000000 -1.000000
vn -0.000000 -0.000000 -1.000000
vn -0.000000 -0.000000 -1.000000
vn -0.000000 -0.000000 -1.000000
vn -0.000000 -0.000000 -1.000000
vn -0.000000 -0.000000 -1.000000
vn -0.000000 -0.000000 -1.000000
vn -0.000000 -0.000000 -1.000000
vn -0.000000 -0.000000 -1.000000
vn -0.000000 -0.000000 -1.000000
vn -0.000000 -0.000000 -1.000000
vn -0.000000 -0.000000 -1.000000
usemtl Steel_-_Satin
f 2/1/1 51/2/2 1/3/3
f 1/3/3 51/2/2 49/4/4
f 1/5/3 49/6/4 24/7/5
f 24/7/5 49/6/4 95/8/6
f 24/7/5 95/8/6 23/9/7
f 23/9/7 95/8/6 93/10/8
f 23/9/7 93/10/8 22/11/9
f 22/11/9 93/10/8 91/12/10
f 22/11/9 91/12/10 21/13/11
f 21/13/11 91/12/10 89/14/12
f 21/13/11 89/14/12 20/15/13
f 20/15/13 89/14/12 87/16/14
f 20/15/13 87/16/14 19/17/15
f 19/17/15 87/16/14 85/18/16
f 19/17/15 85/18/16 18/19/17
f 18/19/17 85/18/16 83/20/18
f 18/19/17 83/20/18 17/21/19
f 17/21/19 83/20/18 81/22/20
f 17/21/19 81/22/20 16/23/21
f 16/23/21 81/22/20 79/24/22
f 16/23/21 79/24/22 15/25/23
f 15/25/23 79/24/22 77/26/24
f 15/25/23 77/26/24 14/27/25
f 14/27/25 77/26/24 75/28/26
f 14/27/25 75/28/26 13/29/27
f 13/29/27 75/28/26 73/30/28
f 13/29/27 73/30/28 12/31/29
f 12/31/29 73/30/28 71/32/30
f 12/31/29 71/32/30 11/33/31
f 11/33/31 71/32/30 69/34/32
f 11/33/31 69/34/32 10/35/33
f 10/35/33 69/34/32 67/36/34
f 10/35/33 67/36/34 9/37/35
f 9/37/35 67/36/34 65/38/36
f 9/37/35 65/38/36 8/39/37
f 8/39/37 65/38/36 63/40/38
f 8/39/37 63/40/38 7/41/39
f 7/41/39 63/40/38 61/42/40
f 7/41/39 61/42/40 6/43/41
f 6/43/41 61/42/40 59/44/42
f 6/43/41 59/44/42 5/45/43
f 5/45/43 59/44/42 57/46/44
f 5/45/43 57/46/44 4/47/45
f 4/47/45 57/46/44 55/48/46
f 4/47/45 55/48/46 3/49/47
f 3/49/47 55/48/46 53/50/48
f 3/49/47 53/50/48 2/1/1
f 2/1/1 53/50/48 51/2/2
f 26/51/49 96/52/50 25/53/51
f 25/53/51 96/52/50 50/54/52
f 25/55/51 50/56/52 48/57/53
f 48/57/53 50/56/52 52/58/54
f 48/57/53 52/58/54 47/59/55
f 47/59/55 52/58/54 54/60/56
f 47/59/55 54/60/56 46/61/57
f 46/61/57 54/60/56 56/62/58
f 46/61/57 56/62/58 45/63/59
f 45/63/59 56/62/58 58/64/60
f 45/63/59 58/64/60 44/65/61
f 44/65/61 58/64/60 60/66/62
f 44/65/61 60/66/62 43/67/63
f 43/67/63 60/66/62 62/68/64
f 43/67/63 62/68/64 42/69/65
f 42/69/65 62/68/64 64/70/66
f 42/69/65 64/70/66 41/71/67
f 41/71/67 64/70/66 66/72/68
f 41/71/67 66/72/68 40/73/69
f 40/73/69 66/72/68 68/74/70
f 40/73/69 68/74/70 39/75/71
f 39/75/71 68/74/70 70/76/72
f 39/75/71 70/76/72 38/77/73
f 38/77/73 70/76/72 72/78/74
f 38/77/73 72/78/74 37/79/75
f 37/79/75 72/78/74 74/80/76
f 37/79/75 74/80/76 36/81/77
f 36/81/77 74/80/76 76/82/78
f 36/81/77 76/82/78 35/83/79
f 35/83/79 76/82/78 78/84/80
f 35/83/79 78/84/80 34/85/81
f 34/85/81 78/84/80 80/86/82
f 34/85/81 80/86/82 33/87/83
f 33/87/83 80/86/82 82/88/84
f 33/87/83 82/88/84 32/89/85
f 32/89/85 82/88/84 84/90/86
f 32/89/85 84/90/86 31/91/87
f 31/91/87 84/90/86 86/92/88
f 31/91/87 86/92/88 30/93/89
f 30/93/89 86/92/88 88/94/90
f 30/93/89 88/94/90 29/95/91
f 29/95/91 88/94/90 90/96/92
f 29/95/91 90/96/92 28/97/93
f 28/97/93 90/96/92 92/98/94
f 28/97/93 92/98/94 27/99/95
f 27/99/95 92/98/94 94/100/96
f 27/99/95 94/100/96 26/51/49
f 26/51/49 94/100/96 96/52/50
f 49/6/4 50/54/52 95/8/6
f 95/8/6 50/54/52 96/52/50
f 95/8/6 96/52/50 93/10/8
f 93/10/8 96/52/50 94/100/96
f 93/10/8 94/100/96 91/12/10
f 91/12/10 94/100/96 92/98/94
f 91/12/10 92/98/94 89/14/12
f 89/14/12 92/98/94 90/96/92
f 89/14/12 90/96/92 87/16/14
f 87/16/14 90/96/92 88/94/90
f 87/16/14 88/94/90 85/18/16
f 85/18/16 88/94/90 86/92/88
f 85/18/16 86/92/88 83/20/18
f 83/20/18 86/92/88 84/90/86
f 83/20/18 84/90/86 81/22/20
f 81/22/20 84/90/86 82/88/84
f 81/22/20 82/88/84 79/24/22
f 79/24/22 82/88/84 80/86/82
f 79/24/22 80/86/82 77/26/24
f 77/26/24 80/86/82 78/84/80
f 77/26/24 78/84/80 75/28/26
f 75/28/26 78/84/80 76/82/78
f 75/28/26 76/82/78 73/30/28
f 73/30/28 76/82/78 74/80/76
f 73/30/28 74/80/76 71/32/30
f 71/32/30 74/80/76 72/78/74
f 71/32/30 72/78/74 69/34/32
f 69/34/32 72/78/74 70/76/72
f 69/34/32 70/76/72 67/36/34
f 67/36/34 70/76/72 68/74/70
f 67/36/34 68/74/70 65/38/36
f 65/38/36 68/74/70 66/72/68
f 65/38/36 66/72/68 63/40/38
f 63/40/38 66/72/68 64/70/66
f 63/40/38 64/70/66 61/42/40
f 61/42/40 64/70/66 62/68/64
f 61/42/40 62/68/64 59/44/42
f 59/44/42 62/68/64 60/66/62
f 59/44/42 60/66/62 57/46/44
f 57/46/44 60/66/62 58/64/60
f 57/46/44 58/64/60 55/48/46
f 55/48/46 58/64/60 56/62/58
f 55/48/46 56/62/58 53/50/48
f 53/50/48 56/62/58 54/60/56
f 53/50/48 54/60/56 51/2/2
f 51/2/2 54/60/56 52/58/54
f 51/2/2 52/58/54 49/4/4
f 49/4/4 52/58/54 50/56/52
f 98/101/97 147/102/98 97/103/99
f 97/103/99 147/102/98 145/104/100
f 97/105/99 145/106/100 120/107/101
f 120/107/101 145/106/100 191/108/102
f 120/107/101 191/108/102 119/109/103
f 119/109/103 191/108/102 189/110/104
f 119/109/103 189/110/104 118/111/105
f 118/111/105 189/110/104 187/112/106
f 118/111/105 187/112/106 117/113/107
f 117/113/107 187/112/106 185/114/108
f 117/113/107 185/114/108 116/115/109
f 116/115/109 185/114/108 183/116/110
f 116/115/109 183/116/110 115/117/111
f 115/117/111 183/116/110 181/118/112
f 115/117/111 181/118/112 114/119/113
f 114/119/113 181/118/112 179/120/114
f 114/119/113 179/120/114 113/121/115
f 113/121/115 179/120/114 177/122/116
f 113/121/115 177/122/116 112/123/117
f 112/123/117 177/122/116 175/124/118
f 112/123/117 175/124/118 111/125/119
f 111/125/119 175/124/118 173/126/120
f 111/125/119 173/126/120 110/127/121
f 110/127/121 173/126/120 171/128/122
f 110/127/121 171/128/122 109/129/123
f 109/129/123 171/128/122 169/130/124
f 109/129/123 169/130/124 108/131/125
f 108/131/125 169/130/124 167/132/126
f 108/131/125 167/132/126 107/133/127
f 107/133/127 167/132/126 165/134/128
f 107/133/127 165/134/128 106/135/129
f 106/135/129 165/134/128 163/136/130
f 106/135/129 163/136/130 105/137/131
f 105/137/131 163/136/130 161/138/132
f 105/137/131 161/138/132 104/139/133
f 104/139/133 161/138/132 159/140/134
f 104/139/133 159/140/134 103/141/135
f 103/141/135 159/140/134 157/142/136
f 103/141/135 157/142/136 102/143/137
f 102/143/137 157/142/136 155/144/138
f 102/143/137 155/144/138 101/145/139
f 101/145/139 155/144/138 153/146/140
f 101/145/139 153/146/140 100/147/141
f 100/147/141 153/146/140 151/148/142
f 100/147/141 151/148/142 99/149/143
f 99/149/143 151/148/142 149/150/144
f 99/149/143 149/150/144 98/101/97
f 98/101/97 149/150/144 147/102/98
f 122/151/145 192/152/146 121/153/147
f 121/153/147 192/152/146 146/154/148
f 121/155/147 146/156/148 144/157/149
f 144/157/149 146/156/148 148/158/150
f 144/157/149 148/158/150 143/159/151
f 143/159/151 148/158/150 150/160/152
f 143/159/151 150/160/152 142/161/153
f 142/161/153 150/160/152 152/162/154
f 142/161/153 152/162/154 141/163/155
f 141/163/155 152/162/154 154/164/156
f 141/163/155 154/164/156 140/165/157
f 140/165/157 154/164/156 156/166/158
f 140/165/157 156/166/158 139/167/159
f 139/167/159 156/166/158 158/168/160
f 139/167/159 158/168/160 138/169/161
f 138/169/161 158/168/160 160/170/162
f 138/169/161 160/170/162 137/171/163
f 137/171/163 160/170/162 162/172/164
f 137/171/163 162/172/164 136/173/165
f 136/173/165 162/172/164 164/174/166
f 136/173/165 164/174/166 135/175/167
f 135/175/167 164/174/166 166/176/168
f 135/175/167 166/176/168 134/177/169
f 134/177/169 166/176/168 168/178/170
f 134/177/169 168/178/170 133/179/171
f 133/179/171 168/178/170 170/180/172
f 133/179/171 170/180/172 132/181/173
f 132/181/173 170/180/172 172/182/174
f 132/181/173 172/182/174 131/183/175
f 131/183/175 172/182/174 174/184/176
f 131/183/175 174/184/176 130/185/177
f 130/185/177 174/184/176 176/186/178
f 130/185/177 176/186/178 129/187/179
f 129/187/179 176/186/178 178/188/180
f 129/187/179 178/188/180 128/189/181
f 128/189/181 178/188/180 180/190/182
f 128/189/181 180/190/182 127/191/183
f 127/191/183 180/190/182 182/192/184
f 127/191/183 182/192/184 126/193/185
f 126/193/185 182/192/184 184/194/186
f 126/193/185 184/194/186 125/195/187
f 125/195/187 184/194/186 186/196/188
f 125/195/187 186/196/188 124/197/189
f 124/197/189 186/196/188 188/198/190
f 124/197/189 188/198/190 123/199/191
f 123/199/191 188/198/190 190/200/192
f 123/199/191 190/200/192 122/151/145
f 122/151/145 190/200/192 192/152/146
f 145/106/100 146/154/148 191/108/102
f 191/108/102 146/154/148 192/152/146
f 191/108/102 192/152/146 189/110/104
f 189/110/104 192/152/146 190/200/192
f 189/110/104 190/200/192 187/112/106
f 187/112/106 190/200/192 188/198/190
f 187/112/106 188/198/190 185/114/108
f 185/114/108 188/198/190 186/196/188
f 185/114/108 186/196/188 183/116/110
f 183/116/110 186/196/188 184/194/186
f 183/116/110 184/194/186 181/118/112
f 181/118/112 184/194/186 182/192/184
f 181/118/112 182/192/184 179/120/114
f 179/120/114 182/192/184 180/190/182
f 179/120/114 180/190/182 177/122/116
f 177/122/116 180/190/182 178/188/180
f 177/122/116 178/188/180 175/124/118
f 175/124/118 178/188/180 176/186/178
f 175/124/118 176/186/178 173/126/120
f 173/126/120 176/186/178 174/184/176
f 173/126/120 174/184/176 171/128/122
f 171/128/122 174/184/176 172/182/174
f 171/128/122 172/182/174 169/130/124
f 169/130/124 172/182/174 170/180/172
f 169/130/124 170/180/172 167/132/126
f 167/132/126 170/180/172 168/178/170
f 167/132/126 168/178/170 165/134/128
f 165/134/128 168/178/170 166/176/168
f 165/134/128 166/176/168 163/136/130
f 163/136/130 166/176/168 164/174/166
f 163/136/130 164/174/166 161/138/132
f 161/138/132 164/174/166 162/172/164
f 161/138/132 162/172/164 159/140/134
f 159/140/134 162/172/164 160/170/162
f 159/140/134 160/170/162 157/142/136
f 157/142/136 160/170/162 158/168/160
f 157/142/136 158/168/160 155/144/138
f 155/144/138 158/168/160 156/166/158
f 155/144/138 156/166/158 153/146/140
f 153/146/140 156/166/158 154/164/156
f 153/146/140 154/164/156 151/148/142
f 151/148/142 154/164/156 152/162/154
f 151/148/142 152/162/154 149/150/144
f 149/150/144 152/162/154 150/160/152
f 149/150/144 150/160/152 147/102/98
f 147/102/98 150/160/152 148/158/150
f 147/102/98 148/158/150 145/104/100
f 145/104/100 148/158/150 146/156/148
f 194/201/193 242/202/194 193/203/195
f 193/203/195 242/202/194 241/204/196
f 193/205/195 241/206/196 216/207/197
f 216/207/197 241/206/196 264/208/198
f 216/207/197 264/208/198 215/209/199
f 215/209/199 264/208/198 263/210/200
f 215/209/199 263/210/200 214/211/201
f 214/211/201 263/210/200 262/212/202
f 214/211/201 262/212/202 213/213/203
f 213/213/203 262/212/202 261/214/204
f 213/213/203 261/214/204 212/215/205
f 212/215/205 261/214/204 260/216/206
f 212/215/205 260/216/206 211/217/207
f 211/217/207 260/216/206 259/218/208
f 211/217/207 259/218/208 210/219/209
f 210/219/209 259/218/208 258/220/210
f 210/219/209 258/220/210 209/221/211
f 209/221/211 258/220/210 257/222/212
f 209/221/211 257/222/212 208/223/213
f 208/223/213 257/222/212 256/224/214
f 208/223/213 256/224/214 207/225/215
f 207/225/215 256/224/214 255/226/216
f 207/225/215 255/226/216 206/227/217
f 206/227/217 255/226/216 254/228/218
f 206/227/217 254/228/218 205/229/219
f 205/229/219 254/228/218 253/230/220
f 205/229/219 253/230/220 204/231/221
f 204/231/221 253/230/220 252/232/222
f 204/231/221 252/232/222 203/233/223
f 203/233/223 252/232/222 251/234/224
f 203/233/223 251/234/224 202/235/225
f 202/235/225 251/234/224 250/236/226
f 202/235/225 250/236/226 201/237/227
f 201/237/227 250/236/226 249/238/228
f 201/237/227 249/238/228 200/239/229
f 200/239/229 249/238/228 248/240/230
f 200/239/229 248/240/230 199/241/231
f 199/241/231 248/240/230 247/242/232
f 199/241/231 247/242/232 198/243/233
f 198/243/233 247/242/232 246/244/234
f 198/243/233 246/244/234 197/245/235
f 197/245/235 246/244/234 245/246/236
f 197/245/235 245/246/236 196/247/237
f 196/247/237 245/246/236 244/248/238
f 196/247/237 244/248/238 195/249/239
f 195/249/239 244/248/238 243/250/240
f 195/249/239 243/250/240 194/201/193
f 194/201/193 243/250/240 242/202/194
f 218/251/241 264/208/198 217/252/242
f 217/252/242 264/208/198 241/206/196
f 217/253/242 241/204/196 240/254/243
f 240/254/243 241/204/196 242/202/194
f 240/254/243 242/202/194 239/255/244
f 239/255/244 242/202/194 243/250/240
f 239/255/244 243/250/240 238/256/245
f 238/256/245 243/250/240 244/248/238
f 238/256/245 244/248/238 237/257/246
f 237/257/246 244/248/238 245/246/236
f 237/257/246 245/246/236 236/258/247
f 236/258/247 245/246/236 246/244/234
f 236/258/247 246/244/234 235/259/248
f 235/259/248 246/244/234 247/242/232
f 235/259/248 247/242/232 234/260/249
f 234/260/249 247/242/232 248/240/230
f 234/260/249 248/240/230 233/261/250
f 233/261/250 248/240/230 249/238/228
f 233/261/250 249/238/228 232/262/251
f 232/262/251 249/238/228 250/236/226
f 232/262/251 250/236/226 231/263/252
f 231/263/252 250/236/226 251/234/224
f 231/263/252 251/234/224 230/264/253
f 230/264/253 251/234/224 252/232/222
f 230/264/253 252/232/222 229/265/254
f 229/265/254 252/232/222 253/230/220
f 229/265/254 253/230/220 228/266/255
f 228/266/255 253/230/220 254/228/218
f 228/266/255 254/228/218 227/267/256
f 227/267/256 254/228/218 255/226/216
f 227/267/256 255/226/216 226/268/257
f 226/268/257 255/226/216 256/224/214
f 226/268/257 256/224/214 225/269/258
f 225/269/258 256/224/214 257/222/212
f 225/269/258 257/222/212 224/270/259
f 224/270/259 257/222/212 258/220/210
f 224/270/259 258/220/210 223/271/260
f 223/271/260 258/220/210 259/218/208
f 223/271/260 259/218/208 222/272/261
f 222/272/261 259/218/208 260/216/206
f 222/272/261 260/216/206 221/273/262
f 221/273/262 260/216/206 261/214/204
f 221/273/262 261/214/204 220/274/263
f 220/274/263 261/214/204 262/212/202
f 220/274/263 262/212/202 219/275/264
f 219/275/264 262/212/202 263/210/200
f 219/275/264 263/210/200 218/251/241
f 218/251/241 263/210/200 264/208/198
f 265/276/265 266/277/266 268/278/267
f 268/278/267 266/277/266 267/279/268
f 284/280/269 269/281/270 283/282/271
f 283/282/271 269/281/270 270/283/272
f 283/282/271 270/283/272 282/284/273
f 282/284/273 270/283/272 271/285/274
f 282/284/273 271/285/274 281/286/275
f 281/286/275 271/285/274 272/287/276
f 281/286/275 272/287/276 280/288/277
f 280/288/277 272/287/276 273/289/278
f 280/288/277 273/289/278 279/290/279
f 279/290/279 273/289/278 274/291/280
f 279/290/279 274/291/280 278/292/281
f 278/292/281 274/291/280 275/293/282
f 278/292/281 275/293/282 277/294/283
f 277/294/283 275/293/282 276/295/284
f 277/294/283 276/295/284 268/296/267
f 268/296/267 276/295/284 265/297/265
f 285/298/285 269/299/286 286/300/287
f 286/300/287 269/299/286 284/301/288
f 310/302/289 287/303/290 309/304/291
f 309/304/291 287/303/290 288/305/292
f 309/304/291 288/305/292 308/306/293
f 308/306/293 288/305/292 289/307/294
f 308/306/293 289/307/294 307/308/295
f 307/308/295 289/307/294 290/309/296
f 307/308/295 290/309/296 306/310/297
f 306/310/297 290/309/296 291/311/298
f 306/310/297 291/311/298 305/312/299
f 305/312/299 291/311/298 292/313/300
f 305/312/299 292/313/300 304/314/301
f 304/314/301 292/313/300 293/315/302
f 304/314/301 293/315/302 303/316/303
f 303/316/303 293/315/302 294/317/304
f 303/316/303 294/317/304 302/318/305
f 302/318/305 294/317/304 295/319/306
f 302/318/305 295/319/306 301/320/307
f 301/320/307 295/319/306 296/321/308
f 301/320/307 296/321/308 300/322/309
f 300/322/309 296/321/308 297/323/310
f 300/322/309 297/323/310 299/324/311
f 299/324/311 297/323/310 298/325/312
f 299/324/311 298/325/312 286/326/313
f 286/326/313 298/325/312 285/327/314
f 311/328/315 287/329/290 312/330/316
f 312/330/316 287/329/290 310/331/289
f 322/332/317 313/333/318 321/334/319
f 321/334/319 313/333/318 314/335/320
f 321/334/319 314/335/320 315/336/321
f 321/334/319 315/336/321 320/337/322
f 320/337/322 315/336/321 316/338/323
f 320/337/322 316/338/323 319/339/324
f 319/339/324 316/338/323 317/340/325
f 319/339/324 317/340/325 318/341/326
f 318/341/326 317/340/325 312/342/316
f 312/342/316 317/340/325 311/343/315
f 323/344/327 313/345/318 324/346/328
f 324/346/328 313/345/318 322/347/317
f 267/348/268 266/349/266 350/350/329
f 350/350/329 266/349/266 325/351/330
f 350/350/329 325/351/330 349/352/331
f 349/352/331 325/351/330 326/353/332
f 349/352/331 326/353/332 348/354/333
f 348/354/333 326/353/332 327/355/334
f 348/354/333 327/355/334 347/356/335
f 347/356/335 327/355/334 328/357/336
f 347/356/335 328/357/336 346/358/337
f 346/358/337 328/357/336 329/359/338
f 346/358/337 329/359/338 345/360/339
f 345/360/339 329/359/338 330/361/340
f 345/360/339 330/361/340 344/362/341
f 344/362/341 330/361/340 331/363/342
f 344/362/341 331/363/342 343/364/343
f 343/364/343 331/363/342 332/365/344
f 343/364/343 332/365/344 342/366/345
f 342/366/345 332/365/344 333/367/346
f 342/366/345 333/367/346 341/368/347
f 341/368/347 333/367/346 334/369/348
f 341/368/347 334/369/348 340/370/349
f 340/370/349 334/369/348 335/371/350
f 340/370/349 335/371/350 339/372/351
f 339/372/351 335/371/350 336/373/352
f 339/372/351 336/373/352 338/374/353
f 338/374/353 336/373/352 337/375/354
f 338/374/353 337/375/354 324/376/328
f 324/376/328 337/375/354 323/377/327
f 26/378/355 25/379/356 324/380/357
f 324/380/357 25/379/356 48/381/358
f 324/380/357 48/381/358 47/382/359
f 47/382/359 46/383/360 324/380/357
f 324/380/357 46/383/360 225/384/361
f 324/380/357 225/384/361 224/385/362
f 46/383/360 45/386/363 225/384/361
f 225/384/361 45/386/363 278/387/364
f 225/384/361 278/387/364 226/388/365
f 226/388/365 278/387/364 277/389/366
f 226/388/365 277/389/366 227/390/367
f 227/390/367 277/389/366 228/391/368
f 228/391/368 277/389/366 268/392/369
f 228/391/368 268/392/369 229/393/370
f 229/393/370 268/392/369 230/394/371
f 230/394/371 268/392/369 231/395/372
f 231/395/372 268/392/369 232/396/373
f 232/396/373 268/392/369 233/397/374
f 233/397/374 268/392/369 267/398/375
f 233/397/374 267/398/375 234/399/376
f 234/399/376 267/398/375 235/400/377
f 235/400/377 267/398/375 346/401/378
f 235/400/377 346/401/378 236/402/379
f 236/402/379 346/401/378 345/403/380
f 236/402/379 345/403/380 237/404/381
f 237/404/381 345/403/380 344/405/382
f 237/404/381 344/405/382 238/406/383
f 238/406/383 344/405/382 343/407/384
f 238/406/383 343/407/384 239/408/385
f 239/408/385 343/407/384 240/409/386
f 240/409/386 343/407/384 217/410/387
f 217/410/387 343/407/384 342/411/388
f 217/410/387 342/411/388 218/412/389
f 218/412/389 342/411/388 219/413/390
f 219/413/390 342/411/388 341/414/391
f 219/413/390 341/414/391 220/415/392
f 220/415/392 341/414/391 221/416/393
f 221/416/393 341/414/391 340/417/394
f 221/416/393 340/417/394 222/418/395
f 222/418/395 340/417/394 339/419/396
f 222/418/395 339/419/396 223/420/397
f 223/420/397 339/419/396 338/421/398
f 223/420/397 338/421/398 324/380/357
f 45/386/363 44/422/399 278/387/364
f 278/387/364 44/422/399 279/423/400
f 279/423/400 44/422/399 43/424/401
f 279/423/400 43/424/401 280/425/402
f 280/425/402 43/424/401 42/426/403
f 280/425/402 42/426/403 281/427/404
f 281/427/404 42/426/403 126/428/405
f 281/427/404 126/428/405 125/429/406
f 126/428/405 42/426/403 310/430/407
f 310/430/407 42/426/403 41/431/408
f 310/430/407 41/431/408 40/432/409
f 40/432/409 39/433/410 310/430/407
f 310/430/407 39/433/410 38/434/411
f 310/430/407 38/434/411 37/435/412
f 310/430/407 37/435/412 312/436/413
f 312/436/413 37/435/412 36/437/414
f 312/436/413 36/437/414 35/438/415
f 35/438/415 34/439/416 312/436/413
f 312/436/413 34/439/416 33/440/417
f 312/436/413 33/440/417 32/441/418
f 32/441/418 31/442/419 312/436/413
f 312/436/413 31/442/419 318/443/420
f 318/443/420 31/442/419 319/444/421
f 319/444/421 31/442/419 322/445/422
f 319/444/421 322/445/422 320/446/423
f 320/446/423 322/445/422 321/447/424
f 31/442/419 30/448/425 322/445/422
f 322/445/422 30/448/425 29/449/426
f 322/445/422 29/449/426 28/450/427
f 28/450/427 27/451/428 322/445/422
f 322/445/422 27/451/428 324/380/357
f 324/380/357 27/451/428 26/378/355
f 144/452/429 283/453/430 121/454/431
f 121/454/431 283/453/430 282/455/432
f 121/454/431 282/455/432 122/456/433
f 122/456/433 282/455/432 123/457/434
f 123/457/434 282/455/432 124/458/435
f 124/458/435 282/455/432 281/427/404
f 124/458/435 281/427/404 125/429/406
f 144/452/429 143/459/436 283/453/430
f 283/453/430 143/459/436 142/460/437
f 283/453/430 142/460/437 284/461/438
f 284/461/438 142/460/437 141/462/439
f 284/461/438 141/462/439 140/463/440
f 284/461/438 140/463/440 286/464/441
f 286/464/441 140/463/440 139/465/442
f 286/464/441 139/465/442 299/466/443
f 299/466/443 139/465/442 302/467/444
f 299/466/443 302/467/444 300/468/445
f 300/468/445 302/467/444 301/469/446
f 302/467/444 139/465/442 303/470/447
f 303/470/447 139/465/442 138/471/448
f 303/470/447 138/471/448 304/472/449
f 304/472/449 138/471/448 137/473/450
f 304/472/449 137/473/450 305/474/451
f 305/474/451 137/473/450 136/475/452
f 305/474/451 136/475/452 135/476/453
f 305/474/451 135/476/453 306/477/454
f 306/477/454 135/476/453 134/478/455
f 306/477/454 134/478/455 307/479/456
f 307/479/456 134/478/455 133/480/457
f 307/479/456 133/480/457 132/481/458
f 307/479/456 132/481/458 308/482/459
f 308/482/459 132/481/458 131/483/460
f 308/482/459 131/483/460 130/484/461
f 308/482/459 130/484/461 309/485/462
f 309/485/462 130/484/461 129/486/463
f 309/485/462 129/486/463 128/487/464
f 309/485/462 128/487/464 310/430/407
f 310/430/407 128/487/464 127/488/465
f 310/430/407 127/488/465 126/428/405
f 224/385/362 223/420/397 324/380/357
f 346/401/378 267/398/375 347/489/466
f 347/489/466 267/398/375 350/490/467
f 347/489/466 350/490/467 348/491/468
f 348/491/468 350/490/467 349/492/469
f 2/493/470 1/494/471 323/495/472
f 323/495/472 1/494/471 24/496/473
f 323/495/472 24/496/473 23/497/474
f 323/495/472 23/497/474 313/498/475
f 313/498/475 23/497/474 22/499/476
f 313/498/475 22/499/476 21/500/477
f 21/500/477 20/501/478 313/498/475
f 313/498/475 20/501/478 19/502/479
f 313/498/475 19/502/479 316/503/480
f 316/503/480 19/502/479 317/504/481
f 317/504/481 19/502/479 311/505/482
f 311/505/482 19/502/479 18/506/483
f 311/505/482 18/506/483 17/507/484
f 17/507/484 16/508/485 311/505/482
f 311/505/482 16/508/485 15/509/486
f 311/505/482 15/509/486 14/510/487
f 14/510/487 13/511/488 311/505/482
f 311/505/482 13/511/488 287/512/489
f 287/512/489 13/511/488 12/513/490
f 287/512/489 12/513/490 11/514/491
f 11/514/491 10/515/492 287/512/489
f 287/512/489 10/515/492 9/516/493
f 287/512/489 9/516/493 8/517/494
f 7/518/495 273/519/496 8/517/494
f 8/517/494 273/519/496 272/520/497
f 8/517/494 272/520/497 116/521/498
f 116/521/498 272/520/497 117/522/499
f 117/522/499 272/520/497 118/523/500
f 118/523/500 272/520/497 271/524/501
f 118/523/500 271/524/501 119/525/502
f 119/525/502 271/524/501 120/526/503
f 120/526/503 271/524/501 97/527/504
f 97/527/504 271/524/501 270/528/505
f 97/527/504 270/528/505 98/529/506
f 98/529/506 270/528/505 99/530/507
f 99/530/507 270/528/505 100/531/508
f 100/531/508 270/528/505 269/532/509
f 100/531/508 269/532/509 101/533/510
f 101/533/510 269/532/509 102/534/511
f 102/534/511 269/532/509 285/535/512
f 102/534/511 285/535/512 103/536/513
f 103/536/513 285/535/512 298/537/514
f 103/536/513 298/537/514 295/538/515
f 295/538/515 298/537/514 297/539/516
f 295/538/515 297/539/516 296/540/517
f 273/519/496 7/518/495 274/541/518
f 274/541/518 7/518/495 6/542/519
f 274/541/518 6/542/519 275/543/520
f 275/543/520 6/542/519 5/544/521
f 275/543/520 5/544/521 209/545/522
f 209/545/522 5/544/521 4/546/523
f 209/545/522 4/546/523 323/495/472
f 323/495/472 4/546/523 3/547/524
f 323/495/472 3/547/524 2/493/470
f 8/517/494 116/521/498 287/512/489
f 287/512/489 116/521/498 115/548/525
f 287/512/489 115/548/525 114/549/526
f 287/512/489 114/549/526 288/550/527
f 288/550/527 114/549/526 113/551/528
f 288/550/527 113/551/528 112/552/529
f 288/550/527 112/552/529 289/553/530
f 289/553/530 112/552/529 111/554/531
f 289/553/530 111/554/531 110/555/532
f 289/553/530 110/555/532 290/556/533
f 290/556/533 110/555/532 109/557/534
f 290/556/533 109/557/534 108/558/535
f 290/556/533 108/558/535 291/559/536
f 291/559/536 108/558/535 107/560/537
f 291/559/536 107/560/537 292/561/538
f 292/561/538 107/560/537 106/562/539
f 292/561/538 106/562/539 105/563/540
f 292/561/538 105/563/540 293/564/541
f 293/564/541 105/563/540 104/565/542
f 293/564/541 104/565/542 294/566/543
f 294/566/543 104/565/542 103/536/513
f 294/566/543 103/536/513 295/538/515
f 216/567/544 333/568/545 193/569/546
f 193/569/546 333/568/545 332/570/547
f 193/569/546 332/570/547 194/571/548
f 194/571/548 332/570/547 195/572/549
f 195/572/549 332/570/547 196/573/550
f 196/573/550 332/570/547 331/574/551
f 196/573/550 331/574/551 197/575/552
f 197/575/552 331/574/551 330/576/553
f 197/575/552 330/576/553 198/577/554
f 198/577/554 330/576/553 329/578/555
f 198/577/554 329/578/555 199/579/556
f 199/579/556 329/578/555 266/580/557
f 199/579/556 266/580/557 200/581/558
f 200/581/558 266/580/557 201/582/559
f 201/582/559 266/580/557 265/583/560
f 201/582/559 265/583/560 202/584/561
f 202/584/561 265/583/560 203/585/562
f 203/585/562 265/583/560 204/586/563
f 204/586/563 265/583/560 205/587/564
f 205/587/564 265/583/560 206/588/565
f 206/588/565 265/583/560 276/589/566
f 206/588/565 276/589/566 207/590/567
f 207/590/567 276/589/566 208/591/568
f 208/591/568 276/589/566 275/543/520
f 208/591/568 275/543/520 209/545/522
f 216/567/544 215/592/569 333/568/545
f 333/568/545 215/592/569 334/593/570
f 334/593/570 215/592/569 214/594/571
f 334/593/570 214/594/571 213/595/572
f 334/593/570 213/595/572 335/596/573
f 335/596/573 213/595/572 212/597/574
f 335/596/573 212/597/574 336/598/575
f 336/598/575 212/597/574 211/599/576
f 336/598/575 211/599/576 337/600/577
f 337/600/577 211/599/576 323/495/472
f 323/495/472 211/599/576 210/601/578
f 323/495/472 210/601/578 209/545/522
f 329/578/555 328/602/579 266/580/557
f 266/580/557 328/602/579 325/603/580
f 325/603/580 328/602/579 327/604/581
f 325/603/580 327/604/581 326/605/582
f 316/503/480 315/606/583 313/498/475
f 313/498/475 315/606/583 314/607/584
# 350 vertices
# 607 texture params
# 584 normals
# 708 facets

# 1 groups
